<?xml version="1.0" encoding="UTF-8" standalone="no"?><!DOCTYPE svg PUBLIC "-//W3C//DTD SVG 1.1//EN" "http://www.w3.org/Graphics/SVG/1.1/DTD/svg11.dtd"><svg width="100%" height="100%" viewBox="0 0 8250 6080" version="1.1" xmlns="http://www.w3.org/2000/svg" xmlns:xlink="http://www.w3.org/1999/xlink" xml:space="preserve" xmlns:serif="http://www.serif.com/" style="fill-rule:evenodd;clip-rule:evenodd;stroke-linecap:round;stroke-linejoin:round;"><g id="features"><path id="ECE" d="M5008.67,243.054l-17.359,13.892l-1.737,6.941l-0,13.892l3.471,15.625l-0,29.513l-5.209,20.833l-22.566,36.458l-6.946,17.363l-3.471,53.817l3.471,17.362l6.946,17.363l3.471,3.47l12.154,10.417l8.679,-1.737l15.625,8.683l17.362,19.096l13.888,10.416l5.208,1.738l-1.737,36.458l1.737,17.359l-1.737,13.891l-5.209,10.417l-8.679,6.942l-6.946,5.208l-6.941,1.737l-17.363,1.738l-8.679,1.733l-8.683,5.209l-1.734,5.208l1.734,8.683l27.779,50.346l3.471,10.417l6.946,27.779l5.208,10.417l5.208,8.679l24.304,31.25l8.684,15.625l-0,13.887l-1.738,12.154l-5.208,6.946l-6.946,5.209l-8.679,3.47l-13.888,1.738l-10.416,-0l-13.892,-1.738l-8.679,0l-8.679,3.471l-29.517,22.571l-8.679,6.946l-12.154,19.096l-31.25,32.987l-31.25,41.667l-15.625,17.358l-15.625,12.154l-6.942,3.471l-6.946,0l-5.208,-1.733l-8.679,-5.208l-19.1,-19.1l-8.679,-3.471l-8.68,-0l-10.416,-1.738l-19.1,-3.471l-10.417,-3.47l-32.983,-3.475l-27.779,-10.417l-10.417,1.737l-12.154,3.471l-17.359,10.417l-22.57,22.571l-5.209,6.946l-3.471,6.941l0,10.417l-1.737,1.737l-10.417,6.946l-19.096,20.834l-31.25,48.608l-5.208,6.946l-3.475,3.471l-22.567,-0l-13.891,-19.096l-5.209,-3.471l-8.679,-3.475l-98.958,-20.833l-24.304,-0l-22.571,-1.734l-13.888,0l-10.416,3.471l-27.779,17.363l-8.68,5.208l-12.154,5.208l-8.679,5.208l-19.1,15.625l-13.887,8.68l-19.096,8.679l-8.684,5.208l-5.208,6.946l0,6.946l3.475,5.208l24.304,17.358l8.679,6.946l6.946,6.946l1.738,6.942l1.733,5.208l-3.471,5.208l-12.154,17.363l-10.417,27.779l-12.15,22.567l-19.1,45.141l-5.208,10.417l-13.887,12.15l-12.155,6.946l-24.304,5.208l-8.679,5.209l-17.362,5.208l-1.738,5.208l1.738,5.209l10.416,13.887l3.471,1.738l8.683,-0l3.471,1.737l1.738,3.471l-0,5.208l-5.209,3.471l-6.945,6.946l-1.738,-0l-8.679,-8.679l-8.679,-3.475l-8.684,-5.209l-27.775,-6.941l-57.291,-6.946l-20.834,-5.208l-19.1,1.737l-15.625,-24.308l-1.733,-5.209l0,-10.416l-3.475,-8.679l0,-6.946l3.475,-6.942l5.208,-5.208l3.471,-0l3.471,-3.475l1.738,-3.471l-0,-3.471l1.737,-6.946l3.471,-6.946l24.304,-27.775l1.738,-1.737l-1.738,-1.738l-1.733,0l-1.738,-1.733l-6.946,0l-5.208,-1.737l-8.679,-3.471l-27.779,-27.779l-3.471,-0l-5.208,1.737l-8.68,5.208l-1.737,1.734l-5.208,-0l-1.738,-3.471l-1.733,-5.208l-1.738,-15.625l-1.737,-3.471l-1.734,-1.738l-5.208,0l-6.946,3.471l-1.737,1.738l-3.471,1.737l-3.471,-1.737l-5.208,-1.738l-13.892,-13.887l-1.733,-3.471l1.733,-1.738l17.363,-26.041l3.47,-6.946l5.209,-6.942l5.208,-3.475l6.946,-5.208l5.208,-5.209l3.471,-6.941l0,-1.738l-1.733,-1.737l-1.738,-3.471l-3.471,-3.471l-45.141,-26.042l-1.734,-3.475l-3.475,-3.47l-1.733,-3.471l0,-10.417l3.471,-6.946l3.471,-5.208l10.416,-10.417l0,-5.208l-1.733,-3.471l-1.737,-1.737l-6.946,-8.68l-10.417,-6.945l-3.471,-1.738l-5.208,-3.471l-5.208,0l-6.946,1.738l-12.15,5.208l-10.417,6.942l-19.1,20.833l-15.625,10.417l-12.15,5.208l-17.362,3.475l-15.625,0l-32.988,-1.737l-1.733,1.737l-3.475,0l-3.471,3.471l-0,1.737l-1.738,10.417l-5.208,10.417l-3.471,8.679l-13.887,13.887l-6.946,5.209l-1.738,1.737l-10.416,0l-13.888,-3.471l-6.946,-3.475l-12.15,-15.625l-22.57,-57.291l5.208,-12.15l1.737,-6.946l-1.737,-12.154l-5.208,-8.679l-12.155,-12.155l-22.566,-36.458l-6.946,-19.096l-3.471,-19.096l3.471,-20.833l6.946,-10.417l6.941,-8.683l8.684,-15.625l1.733,-19.096l-5.208,-19.096l-6.942,-17.362l-5.208,-26.042l-8.684,-12.154l-13.887,-6.942l-17.363,-1.737l-12.15,-5.208l-6.945,-10.417l-5.209,-15.625l-3.471,-13.888l0,-39.933l10.417,-39.929l19.096,-32.988l27.779,-22.566l17.358,6.941l13.892,1.738l31.25,-1.738l13.888,-5.208l17.362,-15.625l13.888,-5.208l12.154,-1.734l24.304,-8.683l29.512,-5.208l17.363,-13.888l12.154,-3.471l6.942,-3.475l29.516,-22.566l5.209,-6.946l12.15,-17.363l6.946,-6.941l22.57,-10.417l57.292,-17.362l24.304,-17.363l5.209,10.417l-0,6.946l-19.096,59.029l5.208,13.887l6.942,8.679l10.416,6.946l10.417,10.417l12.154,26.042l6.946,6.945l-15.625,-43.404l-12.154,-8.679l-3.471,-6.946l0,-5.208l5.208,-8.679l0,-5.209l-1.737,-24.308l3.471,-17.358l6.946,-13.892l17.362,-8.679l39.929,12.154l45.138,-26.042l64.237,-57.291l19.096,-5.209l67.708,5.209l6.946,-1.738l22.571,-8.679l8.679,-1.737l26.042,-0l12.154,-1.738l10.417,-5.208l22.566,10.416l26.042,-3.47l26.042,-8.68l24.308,-5.208l17.358,-8.683l71.184,-95.484l13.887,-6.945l22.571,8.679l19.096,13.891l12.154,20.834l5.208,22.566l3.471,26.042l17.363,-8.679l10.416,-13.888l3.471,-19.1l3.471,-39.929l5.208,-12.154l8.684,-8.679l10.416,-13.888l1.734,8.68l5.208,3.47l8.683,0l8.68,-5.208l8.679,-8.679l1.737,-6.946l0,-6.942l3.471,-10.416l15.625,-17.363l15.625,-1.737l38.196,13.891l-6.946,-13.891l-15.625,-5.209l-20.833,-1.733l-13.888,-5.208l-6.946,-13.892l3.475,-12.15l8.68,-12.154l34.72,-34.721l5.209,-12.154l-0,-13.888l-3.471,-12.154l1.737,-10.416l55.555,36.458l19.095,27.779l27.78,22.567l10.416,15.625l8.679,20.833l13.892,19.1l19.096,13.888l20.833,6.945l15.625,-1.737l12.154,-3.471l10.417,1.733l0,19.1l5.208,8.68l19.096,20.833l5.209,15.625l13.887,-8.679l13.892,-0l52.083,12.15l6.942,5.208Zm-399.304,-177.083l-0,8.683l1.737,6.942l5.208,10.416l0,32.988l-3.475,38.196l-13.887,24.304l-22.571,-10.417l-8.679,10.417l-10.417,8.679l-19.096,-13.887l-13.891,-15.625l-3.471,-17.363l13.887,-20.833l74.655,-62.5Z" style="fill:#437290;fill-rule:nonzero;stroke:#fff;stroke-width:8.67px;"/><path id="ECC" d="M5041.67,538.196l-5.209,-1.738l-13.887,-10.416l-17.363,-19.096l-15.625,-8.683l-8.679,1.737l-12.154,-10.417l-3.471,-3.47l-6.946,-17.363l-3.471,-17.362l3.471,-53.817l6.946,-17.363l22.567,-36.458l5.208,-20.833l0,-29.513l-3.471,-15.625l0,-13.891l1.738,-6.942l17.358,-13.892l10.417,6.946l88.541,98.958l22.571,17.363l17.363,8.679l55.554,13.888l19.096,10.416l123.266,93.75l38.192,19.1l67.708,1.734l64.238,24.308l10.417,-0l3.47,-1.738l5.209,0l8.683,8.68l3.471,10.416l-0,10.417l1.737,10.417l10.417,8.683l20.833,8.679l20.834,3.471l19.096,-0l19.095,-3.471l74.655,-27.779l22.57,-0l29.513,22.571l5.208,67.708l20.834,29.513l60.762,41.666l34.725,13.892l27.775,-3.475l-3.471,3.475l-32.987,26.042l-15.625,3.47l-19.096,-6.945l-5.208,-1.734l-26.042,0l-8.679,-1.737l-13.892,-3.471l-8.679,-1.738l-10.417,0l-1.737,3.471l-3.471,3.475l-1.738,10.417l3.475,10.417l10.417,8.679l5.208,3.471l3.471,10.416l0,3.475l-3.471,5.209l-6.945,6.941l-34.721,26.042l-6.946,6.946l-65.971,83.333l-6.946,12.154l-5.208,12.15l-1.738,15.625l0,8.684l3.475,12.15l-5.208,12.154l-20.833,22.571l-22.571,-10.417l-15.625,-20.833l-12.154,-8.684l-43.4,-24.304l-38.196,-26.042l-43.404,-24.304l-32.983,-8.683l-15.625,-1.733l-19.1,-3.475l-12.15,-8.68l-6.946,-5.208l-34.721,-6.946l-10.417,-13.887l-5.208,-17.363l-1.738,-17.358l1.738,-26.042l-0,-8.683l-20.833,-53.817l-36.459,-46.875l-24.308,-43.404l-22.567,-26.042l-29.517,-26.041l-41.666,-27.779l-17.359,-15.625l-6.945,-3.471l-12.154,-3.471l-34.721,-3.475l-17.363,-5.208l-13.887,-6.942Z" style="fill:#437290;fill-rule:nonzero;stroke:#fff;stroke-width:8.67px;"/><path id="ECU" d="M5631.96,1032.99l20.834,-22.571l5.208,-12.154l-3.475,-12.15l0,-8.684l1.738,-15.625l5.208,-12.15l6.946,-12.154l65.971,-83.333l6.945,-6.946l34.721,-26.042l6.946,-6.942l3.471,-5.208l-0,-3.475l-3.471,-10.417l-5.208,-3.47l-10.417,-8.679l-3.475,-10.417l1.738,-10.417l3.47,-3.475l1.738,-3.471l10.417,0l8.679,1.738l13.891,3.471l8.68,1.737l26.041,0l5.209,1.734l19.095,6.945l15.625,-3.471l32.988,-26.041l3.471,-3.475l3.475,-1.733l39.929,10.416l12.154,45.138l6.942,98.958l6.945,31.25l5.209,29.512l8.679,22.571l26.042,20.834l32.987,12.154l100.696,19.096l17.358,6.946l13.892,6.941l13.887,5.208l20.834,-1.733l46.875,-17.362l17.362,-3.471l12.15,3.471l19.1,5.208l36.459,39.929l27.775,8.683l38.195,1.734l12.155,1.737l15.625,5.209l8.679,6.945l20.833,20.834l15.625,12.15l13.888,5.208l13.891,0l65.971,-10.417l12.154,1.738l32.984,15.625l13.891,-1.738l-1.737,-36.458l10.417,-5.208l32.987,8.683l46.875,5.208l12.15,5.209l15.625,10.416l24.308,22.567l19.096,6.946l13.888,-1.738l24.308,-13.887l92.013,-10.417l17.362,-10.416l-10.417,-62.5l3.471,-71.18l-1.737,-5.208l10.416,1.733l19.1,-1.733l10.417,-1.737l8.679,-3.471l22.571,-27.779l5.208,-5.209l5.209,-1.737l17.358,-13.888l10.417,-1.737l10.416,3.475l26.042,27.775l17.363,12.154l19.095,6.946l19.1,5.208l24.305,1.733l20.833,-1.733l10.417,1.733l6.945,3.475l5.209,8.68l5.208,26.041l5.208,6.946l17.359,0l24.308,-8.683l20.833,-1.734l8.68,13.888l5.208,10.417l62.5,79.862l5.208,12.15l3.471,17.363l10.417,15.625l22.571,22.57l57.291,34.721l8.679,12.154l38.196,27.775l26.042,15.625l15.625,5.209l17.362,5.208l20.834,1.738l22.566,-1.738l39.934,-8.679l17.358,-3.471l19.1,6.942l15.625,13.891l12.15,12.15l8.683,6.946l17.359,5.209l43.404,39.929l55.554,32.987l22.571,8.679l17.362,12.155l53.817,10.416l59.029,22.571l17.363,10.417l-10.417,13.887l-22.571,15.625l-12.154,5.209l-12.15,3.47l-13.892,1.738l-32.983,-5.208l-8.683,1.737l-24.305,15.625l-24.304,-1.737l-65.975,-36.459l-13.887,-1.737l-12.154,-1.734l-17.359,1.734l-13.891,-1.734l-17.359,-6.945l-17.362,-5.209l-13.888,5.209l-5.208,15.625l5.208,20.833l8.68,19.096l8.679,10.416l8.683,1.738l20.833,-1.738l8.68,1.738l12.154,5.208l19.096,19.096l12.154,6.946l19.096,5.208l15.625,10.417l10.416,13.887l29.513,105.905l17.362,39.929l27.779,36.458l17.359,17.363l10.416,6.945l20.834,0l5.208,3.471l5.208,5.209l36.459,27.779l3.475,5.208l5.208,10.417l3.471,5.208l5.208,0l8.679,-5.208l3.475,1.733l10.417,17.363l3.471,17.362l-1.738,36.458l0,8.68l3.475,13.887l-1.737,8.683l-8.679,8.68l-13.892,-0l-3.471,-1.738l-1.737,-5.208l1.737,-12.15l0,-1.738l-3.471,-1.737l-5.208,1.737l-8.683,1.738l-10.417,-0l-32.983,-10.417l-13.892,-6.946l-10.417,0l-6.941,-1.737l-5.209,-6.942l-3.475,-8.683l-1.733,-8.679l-3.475,-6.946l-5.208,-3.471l-13.888,-0l-8.679,-3.471l-10.417,-5.208l-10.416,-3.475l-43.404,-1.734l-5.209,1.734l-8.679,-0l-29.517,-10.417l-12.15,-8.679l-5.208,-5.208l-3.475,-6.946l-3.471,-5.209l-1.737,-10.416l-1.734,-5.209l-3.475,-1.733l-8.679,5.208l-3.471,-1.737l-3.475,-5.208l-1.733,-5.209l-5.208,-5.208l-12.154,-6.946l-19.096,-8.679l-12.154,-6.946l-8.68,-3.471l-8.683,1.738l-8.679,3.471l-13.888,3.47l-10.416,0l-12.154,-5.208l-5.209,-6.942l-8.679,-13.891l-5.208,-5.209l-8.684,-6.941l-6.941,-1.738l-8.684,3.471l-10.416,3.475l-10.417,1.733l-22.567,0l-8.683,1.738l-8.679,3.471l-8.679,-0l-10.417,-1.734l-10.417,-8.683l-13.891,-6.942l-17.359,-5.208l-29.516,0l-15.625,3.471l-12.15,6.946l-1.738,8.679l-1.737,15.625l10.416,76.387l3.475,12.155l5.209,6.945l1.733,3.471l-1.733,3.471l-5.209,3.475l-10.416,-1.737l-22.571,-1.738l-20.833,-5.208l-20.834,-12.15l-39.929,-27.779l-17.362,-8.679l-5.209,-5.209l-3.471,-22.571l-5.208,-12.154l-5.208,-10.416l-5.209,-5.209l-88.541,-5.208l-72.917,6.946l-8.683,1.737l-19.096,10.417l-31.25,8.679l-8.679,3.471l-36.459,27.779l-22.571,10.417l-10.416,-8.679l-6.946,-13.892l-15.625,-3.471l-36.458,0l-17.359,-8.679l-48.612,-36.458l-20.833,-27.78l-22.571,6.946l-20.834,12.15l-10.416,-13.887l-3.471,-8.679l-8.679,-8.684l-53.821,-38.191l-10.417,-8.684l-5.208,-6.941l-1.738,-5.209l-10.416,-13.891l-8.68,-10.417l-17.362,-26.042l-1.733,-5.208l-0,-8.679l-1.738,-3.471l-3.471,-5.208l-29.516,-24.309l-95.484,-114.583l-8.683,-15.625l-6.942,-8.679l-13.891,-8.679l-12.15,-3.475l-24.309,5.208l-15.625,5.208l-24.304,13.892l-13.887,6.942l-19.1,3.475l-24.305,-0l-52.083,-15.625l-15.625,-1.738l-15.625,1.738l-10.417,5.208l-10.416,1.733l-12.154,-1.733l-27.775,-19.1l-24.309,-13.888l-15.625,-5.208l-13.887,-3.471l-13.888,10.417l-24.308,29.512l-6.942,12.154l-10.416,19.096l-5.209,8.68l-6.946,5.208l-5.208,3.475l-10.417,-0l-17.362,-1.738l-43.4,-10.416l-8.683,-3.471l-1.734,-5.208l0,-6.946l1.734,-5.209l1.737,-6.945l0,-8.68l-3.471,-8.679l0,-3.475l5.209,-15.625l-1.738,-3.471l-1.737,-5.208l-3.471,-6.946l-3.471,-8.679l-3.475,-6.946l-6.942,-3.471l-10.416,5.209l-12.155,8.679l-5.208,1.737l-3.471,1.738l-3.475,3.471l-3.471,5.208l-5.208,5.208l-8.679,3.471l-17.363,1.738l-10.416,6.945l-19.096,20.834l-10.417,6.941l-6.946,1.738l-10.416,-6.946l-12.154,-5.208l-26.042,-6.942l-93.75,-1.737l-17.358,-3.471l-12.155,-8.684l-6.945,-17.358l-5.209,-31.25l0,-8.683l1.738,-5.209l-0,-1.733l3.471,-3.475l-0,-8.679l-8.68,-5.208l-41.666,-10.417l-10.417,-3.471l-5.208,-3.475l-0,-1.733l-1.738,-1.738l-1.733,-10.416l-1.738,-8.68l-3.47,-5.208l-5.209,-5.208l-20.833,-10.417l-5.208,0l-12.155,-5.208l-26.041,-12.154l-8.679,-0l-20.834,-6.946l-3.475,-1.734l-3.471,-3.475l0,-1.733l1.738,0l22.567,-39.933l32.987,-34.721l13.888,-8.679l5.208,-1.738l3.475,-1.737l5.208,-1.734l3.471,-3.475l3.471,-5.208l17.362,-24.304l12.155,-13.888l3.47,-1.737l3.471,-3.471l0,-3.475l-1.733,-3.471l-1.737,-1.737l-3.471,-1.734l-5.209,0l-3.475,-3.475l0,-8.679l5.209,-12.154l29.516,-38.192Z" style="fill:#437290;fill-rule:nonzero;stroke:#fff;stroke-width:8.67px;"/><path id="ECD" d="M6116.33,1413.2l13.888,-10.417l13.887,3.471l15.625,5.208l24.309,13.888l27.775,19.1l12.154,1.733l10.417,-1.733l10.416,-5.208l15.625,-1.738l15.625,1.738l52.083,15.625l24.305,-0l19.1,-3.475l13.887,-6.942l24.304,-13.892l15.625,-5.208l24.309,-5.208l12.15,3.475l13.891,8.679l6.942,8.679l8.683,15.625l95.484,114.583l29.516,24.309l3.471,5.208l1.738,3.471l-0,8.679l1.733,5.208l17.363,26.042l8.679,10.417l10.416,13.891l1.738,5.209l5.208,6.941l10.417,8.684l53.821,38.191l8.679,8.684l3.471,8.679l10.416,13.887l20.834,-12.15l22.571,-6.946l20.833,27.78l48.612,36.458l17.359,8.679l36.458,0l15.625,3.471l6.946,13.892l10.417,8.679l22.57,-10.417l36.459,-27.779l8.679,-3.471l31.25,-8.679l19.096,-10.417l8.683,-1.737l72.917,-6.946l88.541,5.208l5.209,5.209l5.208,10.416l5.208,12.154l3.471,22.571l5.209,5.209l17.362,8.679l39.929,27.779l20.834,12.15l20.833,5.208l22.571,1.738l10.416,1.737l5.209,-3.475l1.733,-3.471l-1.733,-3.471l-5.209,-6.945l-3.475,-12.155l-10.416,-76.387l1.737,-15.625l1.738,-8.679l12.15,-6.946l15.625,-3.471l29.516,0l17.359,5.208l13.891,6.942l10.417,8.683l10.417,1.734l8.679,-0l8.679,-3.471l8.683,-1.738l22.567,0l10.417,-1.733l10.416,-3.475l8.684,-3.471l6.941,1.738l8.684,6.941l5.208,5.209l8.679,13.891l5.209,6.942l12.154,5.208l10.416,0l13.888,-3.47l8.679,-3.471l8.683,-1.738l8.68,3.471l12.154,6.946l19.096,8.679l12.154,6.946l5.208,5.208l1.733,5.209l3.475,5.208l3.471,1.737l8.679,-5.208l3.475,1.733l1.734,5.209l1.737,10.416l3.471,5.209l3.475,6.946l5.208,5.208l12.15,8.679l29.517,10.417l8.679,-0l5.209,-1.734l43.404,1.734l10.416,3.475l10.417,5.208l8.679,3.471l13.888,-0l5.208,3.471l3.475,6.946l1.733,8.679l3.475,8.683l5.209,6.942l6.941,1.737l10.417,0l13.892,6.946l32.983,10.417l10.417,-0l8.683,-1.738l5.208,-1.737l3.471,1.737l0,1.738l-1.737,12.15l1.737,5.208l3.471,1.738l13.892,-0l-10.417,5.208l-10.417,6.946l-5.208,10.416l1.733,10.417l3.475,17.358l0,8.684l-1.737,10.416l-5.208,15.625l-0,12.15l41.666,142.363l0,8.679l-1.737,15.625l1.737,8.683l6.946,10.417l8.679,8.679l6.946,8.679l0,6.946l-52.083,0l-39.934,5.209l-20.833,-0l-10.417,-8.68l-5.208,-8.683l-12.15,-15.625l-27.779,-24.304l-5.208,8.679l-12.155,46.875l-27.775,111.113l-27.779,109.375l-29.512,111.112l-41.667,166.667l-12.154,31.25l-6.946,8.679l-10.417,-17.363l-3.47,-20.833l-6.946,-8.679l-6.942,-3.471l-6.946,0l-10.416,-3.475l-5.209,-6.942l-6.946,-1.737l-5.208,-0l-5.208,-6.946l-27.775,-10.417l-8.684,-1.733l-5.208,-3.475l-1.733,-3.471l-1.738,-5.208l-1.737,-0l-3.471,1.737l-5.208,5.209l-5.209,1.733l-3.471,-3.471l-3.475,-6.946l-8.679,-12.15l-6.946,-13.891l-3.47,-3.471l-1.738,-6.946l-5.208,-3.471l-12.15,0l-12.154,-3.471l-13.888,-1.737l-5.208,-1.738l-6.946,-6.941l-6.946,-3.475l-6.942,-1.734l-5.208,0l-6.946,1.734l-1.737,-1.734l-0,-1.737l-1.734,-6.946l-6.945,-13.887l-5.209,-3.471l-24.304,-6.946l-3.475,-3.471l-1.733,-5.208l3.471,-3.475l-0,-5.209l-6.946,0l-6.942,1.738l-3.475,1.737l0,3.471l1.738,5.209l-1.738,3.47l-3.471,1.738l-5.208,1.737l-8.679,-1.737l-17.363,-0l-15.625,-1.738l-12.154,-6.941l-6.942,-6.946l-5.208,-1.738l-10.417,0l-5.208,-3.47l-5.208,-6.946l-6.946,-6.942l-10.417,-3.475l-12.154,-1.733l-8.679,-5.209l-6.946,-1.737l-3.471,-0l-1.737,3.471l-5.209,-0l-1.733,-1.734l0,-10.416l-1.737,-5.209l-3.471,-5.208l-1.738,-1.737l-3.471,1.737l-1.737,3.471l-5.208,1.737l-10.417,0l-15.625,-8.683l-10.417,0l-5.208,1.738l-0,3.47l-3.471,0l-1.737,-3.47l-1.738,-1.738l-3.471,0l-19.096,19.1l-19.1,0l-6.941,-6.946l-5.209,0l-17.362,3.471l-6.946,-5.208l-5.208,-0l-5.209,1.737l-3.47,3.471l-5.209,1.738l-5.208,-1.738l-3.471,-6.942l-3.475,0l-3.471,3.471l-1.737,5.209l-5.209,3.47l-3.47,-1.733l-3.471,0l-3.475,3.471l-6.942,3.471l-3.475,3.475l-1.733,3.471l-3.475,3.47l-1.734,-1.733l0,-6.946l-3.475,-1.737l-8.679,-3.471l-13.887,-1.738l-22.571,-5.208l-13.888,-3.471l-5.208,-1.737l0,-3.471l3.471,-3.471l-1.738,-3.475l-3.47,-5.208l-3.471,-3.471l-3.475,-1.738l-12.15,0l-6.946,-3.47l-5.208,-5.209l-5.209,0l-6.946,1.738l-5.208,3.471l-12.15,1.737l-8.683,-1.737l-10.417,1.737l-3.471,-1.737l0,-10.417l-3.471,-0l-3.475,3.471l-6.941,-0l-5.209,-1.734l-5.208,-6.945l-1.737,-6.946l-0,-5.209l-3.471,-3.47l-3.475,-5.209l-8.679,-6.946l-5.209,-5.208l-3.471,-6.942l-8.683,-10.416l-5.208,-13.892l-1.734,-20.833l0,-36.459l3.471,-12.15l0,-13.891l-3.471,-12.15l-12.154,-12.154l-12.154,-6.946l-17.358,-5.209l-15.625,-1.733l-13.892,1.733l-24.304,6.946l-17.363,3.471l-3.47,3.475l-8.68,10.417l-3.475,3.471l-8.679,1.737l-10.416,1.733l-17.363,5.209l-19.096,3.475l-24.304,-0l-6.946,1.733l-12.154,6.946l-8.679,1.737l-13.888,-3.475l-10.416,-5.208l-8.684,-1.733l-5.208,1.733l-17.358,15.625l-6.946,8.683l-3.471,20.834l-3.475,10.416l-5.208,6.942l-17.359,0l-90.279,-36.458l-76.387,-17.359l-10.417,-5.208l-6.946,-10.417l-5.208,-26.041l-3.471,-8.684l-1.737,-5.208l1.737,-6.942l19.096,-20.833l8.679,-20.833l-8.679,-10.417l-5.208,-5.208l-3.471,-6.946l1.733,-6.946l15.625,-13.887l6.946,-10.417l-0,-5.208l-5.208,-5.209l-12.155,-3.471l-39.929,-5.208l-15.625,-6.946l-43.404,-29.512l-8.679,-3.475l-6.946,-3.471l-10.417,-3.471l-5.208,-8.683l-3.471,-15.625l1.738,-13.888l6.941,-15.625l10.417,-15.625l45.142,-43.404l8.679,-10.417l3.471,-10.416l-1.734,-5.209l-6.945,-5.208l-13.888,0l-12.154,8.683l-12.154,5.209l-41.667,39.929l-22.567,45.137l-13.891,15.625l-6.942,3.475l-34.725,12.15l-147.567,71.184l-10.416,8.679l-19.1,3.471l-1.734,3.475l-15.625,6.941l-19.1,3.475l-22.566,1.734l-20.834,-3.471l-12.154,-6.946l0,-8.679l8.679,-8.679l8.684,-10.417l6.941,-12.154l22.571,-53.821l1.738,-13.887l-6.946,-29.513l-0,-13.892l6.946,-17.358l6.941,-15.625l6.946,-10.417l12.154,-19.1l3.471,-8.679l-1.737,-12.154l-6.942,-24.304l-5.208,-8.679l-6.946,-6.946l-13.888,-8.679l-3.475,-5.209l-10.416,-20.833l-26.042,-32.987l-10.417,-8.68l-10.416,-5.208l-8.679,-1.737l-12.155,-6.946l-1.733,-6.942l0,-8.683l5.208,-6.942l10.417,-6.946l29.513,-17.362l10.416,-13.888l-1.737,-12.154l-0,-6.942l3.475,-6.945l8.679,-1.738l12.154,3.475l39.929,26.042l20.834,8.679l24.304,8.679l17.362,1.738l12.154,-1.738l10.417,-3.471l8.679,-6.946l22.571,-38.191l10.417,-22.571l3.471,-6.946l5.208,-3.471l5.208,0l12.154,3.471l3.471,-1.733l3.471,-5.209l-1.733,-15.625l3.471,-13.891l29.512,-12.15l10.417,-5.209l6.946,-6.945l3.47,-8.68l0,-15.625l1.738,-5.208l3.471,-5.208l6.946,-5.209l1.737,-8.683l1.733,-13.887l-8.679,-17.363l0,-3.471l3.471,-5.208l0,-5.208l1.738,-6.946l-3.471,-6.942l-10.417,-17.362l-12.154,-15.625l-6.946,-8.68l-5.208,-10.416l-0,-8.684l3.475,-13.887l1.733,-26.042l3.475,-8.679l-10.417,-67.708Z" style="fill:#437290;fill-rule:nonzero;stroke:#fff;stroke-width:8.67px;"/><path id="ECY" d="M7732.62,2812.5l-15.625,19.096l-50.346,46.875l-38.196,45.141l-46.875,53.817l-46.875,55.558l-46.875,53.817l-46.875,55.558l-46.875,53.817l-46.875,55.558l-46.875,53.817l-48.608,55.558l-55.558,43.401l-55.555,41.666l-55.554,43.404l-57.291,43.405l-55.559,43.4l-55.554,41.666l-57.292,43.404l-55.554,43.405l-53.82,41.666l-41.667,24.304l-13.888,-3.47l-19.1,8.679l-19.096,6.945l-39.929,-19.1l-32.987,-6.941l-12.154,-6.946l-13.888,-12.154l-12.154,-0l-27.775,8.683l-41.667,1.733l-39.933,-12.15l-31.25,-20.833l-22.567,-26.042l-12.154,-32.987l-1.737,-3.471l-1.734,-8.683l-6.945,-6.942l-6.946,-3.475l-8.679,-13.887l-32.988,-39.93l-17.358,-31.25l-10.417,-13.891l-13.892,-5.209l-15.625,-5.208l-217.012,-138.887l-258.679,-111.113l-32.988,-6.942l-15.625,-6.945l-12.154,-10.417l-5.208,-15.625l-3.471,-15.625l-6.946,-13.888l-12.15,-12.154l-17.362,-5.208l-38.196,-10.417l-15.625,-8.679l-8.679,-10.417l-3.471,-13.891l-1.738,-27.775l-5.208,-13.892l-13.888,-22.567l-3.475,-13.891l0,-19.096l-1.733,-8.679l-17.362,-27.779l-12.155,-62.5l-12.15,-20.834l-13.891,-10.416l-17.359,-1.738l-43.404,10.417l-13.887,1.737l-12.154,-10.416l-8.68,-22.571l-8.683,-31.25l-27.775,-74.65l-8.683,-13.892l-24.304,-27.775l-22.571,-19.1l-41.667,-8.679l22.571,-20.833l26.042,-48.613l6.945,-27.775l-1.737,-102.433l46.875,3.475l26.042,-1.738l67.708,-12.154l22.571,0l13.887,3.475l10.417,3.471l8.679,5.208l8.683,1.738l6.942,-5.209l5.208,-13.891l3.475,-3.471l5.209,-0l6.941,3.471l8.684,3.475l12.15,3.471l13.891,-3.471l22.567,-10.417l36.458,-26.042l10.417,-3.475l19.1,-8.679l12.15,-1.737l17.363,-10.417l10.416,-5.208l36.459,-5.209l13.887,3.475l19.1,0l12.15,-5.208l12.154,-3.475l45.138,-3.471l83.333,-38.196l12.154,-6.941l10.417,-3.475l31.25,-0l26.042,-5.209l90.279,-27.775l20.833,-12.154l10.417,-6.946l10.416,-3.47l13.888,-3.471l156.25,-10.417l-19.096,20.833l-1.737,6.942l1.737,5.208l3.471,8.684l5.208,26.041l6.946,10.417l10.417,5.208l76.387,17.359l90.279,36.458l17.359,0l5.208,-6.942l3.475,-10.416l3.471,-20.834l6.946,-8.683l17.358,-15.625l5.208,-1.733l8.684,1.733l10.416,5.208l13.888,3.475l8.679,-1.737l12.154,-6.946l6.946,-1.733l24.304,-0l19.096,-3.475l17.363,-5.209l10.416,-1.733l8.679,-1.737l3.475,-3.471l8.68,-10.417l3.47,-3.475l17.363,-3.471l24.304,-6.946l13.892,-1.733l15.625,1.733l17.358,5.209l12.154,6.946l12.154,12.154l3.471,12.15l0,13.891l-3.471,12.15l0,36.459l1.734,20.833l5.208,13.892l8.683,10.416l3.471,6.942l5.209,5.208l8.679,6.946l3.475,5.209l3.471,3.47l-0,5.209l1.737,6.946l5.208,6.945l5.209,1.734l6.941,-0l3.475,-3.471l3.471,-0l0,10.417l3.471,1.737l10.417,-1.737l8.683,1.737l12.15,-1.737l5.208,-3.471l6.946,-1.738l5.209,0l5.208,5.209l6.946,3.47l12.15,0l3.475,1.738l3.471,3.471l3.47,5.208l1.738,3.475l-3.471,3.471l0,3.471l5.208,1.737l13.888,3.471l22.571,5.208l13.887,1.738l8.679,3.471l3.475,1.737l0,6.946l1.734,1.733l3.475,-3.47l1.733,-3.471l3.475,-3.475l6.942,-3.471l3.475,-3.471l3.471,0l3.47,1.733l5.209,-3.47l1.737,-5.209l3.471,-3.471l3.475,0l3.471,6.942l5.208,1.738l5.209,-1.738l3.47,-3.471l5.209,-1.737l5.208,-0l6.946,5.208l17.362,-3.471l5.209,0l6.941,6.946l19.1,0l19.096,-19.1l3.471,0l1.738,1.738l1.737,3.47l3.471,0.001l-0,-3.471l5.208,-1.738l10.417,0l15.625,8.683l10.417,0l5.208,-1.737l1.737,-3.471l3.471,-1.737l1.738,1.737l3.471,5.208l1.737,5.209l0,10.416l1.733,1.734l5.209,-0l1.737,-3.471l3.471,0l6.946,1.738l8.679,5.208l12.154,1.733l10.417,3.475l6.946,6.942l5.208,6.946l5.208,3.471l10.417,-0l5.208,1.737l6.942,6.946l12.154,6.942l15.625,1.737l17.363,0l8.679,1.738l5.208,-1.738l3.471,-1.737l1.738,-3.471l-1.738,-5.209l0,-3.47l3.475,-1.738l6.942,-1.737l6.946,-0l-0,5.208l-3.471,3.475l1.733,5.208l3.475,3.471l24.304,6.946l5.209,3.471l6.945,13.887l1.734,6.946l-0,1.738l1.737,1.733l6.946,-1.733l5.208,-0l6.942,1.733l6.946,3.475l6.946,6.942l5.208,1.737l13.888,1.738l12.154,3.47l12.15,0l5.208,3.471l1.738,6.946l3.47,3.471l6.946,13.892l8.679,12.15l3.475,6.945l3.471,3.471l5.209,-1.733l5.208,-5.208l3.471,-1.738l1.737,0l1.738,5.208l1.733,3.471l5.208,3.475l8.684,1.734l27.775,10.416l5.208,6.946l5.208,0l6.946,1.738l5.209,6.941l10.416,3.475l6.946,0l6.942,3.471l6.946,8.679l3.47,20.834l10.417,17.362Z" style="fill:#e61300;fill-rule:nonzero;stroke:#fff;stroke-width:8.67px;"/><path id="ECS" d="M6708.33,3770.83l-13.887,8.68l-86.809,29.516l-708.333,250l-119.792,39.929l-118.054,41.667l-26.041,8.679l-36.459,13.892l-17.362,8.679l-69.442,60.762l-93.75,126.738l-46.875,38.196l-12.154,13.887l-29.512,55.555l-12.155,17.362l-32.987,26.042l-12.15,12.154l-0,20.833l10.417,17.358l15.624,10.417l12.15,13.892l1.738,26.041l-8.679,19.096l-13.892,6.946l-17.358,3.471l-15.625,12.154l-12.154,5.208l-8.68,-17.362l-13.891,-59.029l-6.942,-15.625l-10.417,-8.679l-41.666,-12.154l-19.1,-1.734l-15.625,5.209l-10.417,17.358l0,5.208l6.946,19.1l-1.737,10.417l-6.942,39.929l-12.154,38.196l-118.054,-0l-69.446,12.15l-17.363,-0l-36.458,-3.471l-12.15,1.738l-8.683,1.733l-5.209,3.475l-3.471,5.208l-8.679,17.358l-3.475,5.209l-6.941,5.208l-6.946,-1.733l-15.625,-6.946l-10.417,-3.471l-31.25,-5.208l-39.929,-10.417l-26.042,-3.475l-10.416,-5.208l-5.209,-5.209l0,-6.941l-6.946,-10.417l-6.945,-6.946l-5.209,-6.945l-3.471,-5.209l-3.47,-6.941l-1.738,-8.684l0,-15.625l-5.208,-13.887l-0,-6.946l1.737,-5.209l3.471,-6.941l3.471,-5.209l10.417,-8.683l5.208,-5.208l1.737,-5.209l0,-6.941l-1.737,-6.946l-6.942,-6.946l-78.125,-55.554l-5.208,-15.625l1.733,-6.946l5.209,-10.417l116.32,-92.012l19.096,-19.096l34.725,-10.417l31.25,-17.362l24.304,-19.096l24.305,-27.779l8.683,-15.625l3.471,-17.363l-1.738,-13.887l0,-15.625l3.475,-13.888l22.567,-46.875l8.683,-26.041l45.138,-72.917l5.208,-13.892l0,-8.679l-3.471,-8.679l-6.946,-10.417l-8.679,-8.683l-5.208,-6.942l-3.475,-6.945l1.737,-6.946l29.513,-53.817l8.683,-10.417l8.679,-8.683l104.167,-52.083l10.417,-8.679l3.471,-8.68l-0,-8.683l-1.734,-6.942l-3.475,-8.683l-6.941,-6.942l-29.517,-20.833l-5.208,-3.475l-8.68,0l-17.362,6.946l-10.417,8.679l-5.208,10.417l-3.471,10.416l-1.737,10.417l-3.471,5.208l-6.946,0l-8.679,-3.47l-6.946,-6.946l-3.471,-8.679l-1.737,-10.417l5.208,-27.779l6.946,3.475l6.946,-0l1.733,-1.738l5.208,-1.737l8.684,-12.15l22.566,-34.725l3.475,-6.942l1.734,-6.946l-0,-20.833l5.208,-17.363l-1.733,-53.816l1.733,-10.417l1.737,-8.683l-6.945,-10.417l-13.888,-10.417l-57.292,-26.041l-13.887,-6.942l-0,-10.417l32.983,-22.57l5.209,-8.68l3.475,-12.154l-0,-10.416l5.208,-13.888l8.679,-8.683l15.625,-12.15l5.208,-6.946l0,-5.208l-3.47,-5.209l-1.738,-5.208l-3.471,-36.458l6.942,-26.042l8.683,-15.625l13.888,-10.417l13.887,-6.946l12.154,-8.679l1.738,-6.946l-8.683,-19.095l-3.471,-10.417l-0,-22.571l-3.471,-12.15l-6.946,-8.683l-6.946,-5.209l-6.941,-6.941l-3.475,-6.946l-0,-12.154l3.475,-10.417l24.304,-39.929l38.196,-41.667l3.47,-12.154l-6.945,-27.775l-3.471,-22.571l-3.471,-8.679l-10.417,-10.417l-3.475,-8.683l-3.471,-13.887l-1.737,-17.363l-0,-19.096l1.737,-10.416l5.209,-8.68l5.208,-5.208l5.208,-6.946l6.946,-5.208l6.942,-10.417l6.946,-8.679l8.679,-6.946l22.571,-12.154l8.679,-6.942l6.946,-8.683l3.47,-8.679l1.738,-10.417l-1.738,-8.679l-8.679,-26.042l0,-13.891l1.738,-6.942l8.679,-15.625l15.625,-20.833l10.417,-6.946l19.095,-10.417l12.155,-3.471l32.987,5.209l22.567,-0l13.891,-5.209l15.625,-6.945l8.68,-6.946l19.095,-19.096l41.667,8.679l22.571,19.1l24.304,27.775l8.683,13.892l27.775,74.65l8.684,31.25l8.679,22.571l12.154,10.416l13.888,-1.737l43.404,-10.417l17.358,1.738l13.892,10.416l12.15,20.834l12.154,62.5l17.362,27.779l1.734,8.679l-0,19.096l3.475,13.891l13.887,22.567l5.209,13.892l1.737,27.775l3.471,13.891l8.679,10.417l15.625,8.679l38.196,10.417l17.362,5.208l12.15,12.154l6.946,13.888l3.471,15.625l5.208,15.625l12.155,10.417l15.625,6.945l32.987,6.942l258.679,111.113l217.013,138.887l15.625,5.208l13.891,5.209l10.417,13.891l17.358,31.25l32.988,39.93l8.679,13.887l6.946,3.475l6.946,6.942l1.733,8.683l1.738,3.471l12.154,32.987l22.566,26.042l31.25,20.833l39.934,12.15l41.666,-1.733l27.775,-8.683l12.155,-0l13.887,12.154l12.154,6.946l32.988,6.941l39.929,19.1l19.096,-6.945l19.1,-8.68l13.887,3.471Z" style="fill:#437290;fill-rule:nonzero;stroke:#fff;stroke-width:8.67px;"/><path id="ECZ" d="M4574.67,4484.38l78.125,55.554l6.941,6.946l1.738,6.946l-0,6.941l-1.738,5.209l-5.208,5.208l-10.417,8.684l-3.471,5.208l-3.47,6.942l-1.738,5.208l0,6.946l5.208,13.887l0.001,15.625l1.737,8.684l3.471,6.941l3.471,5.209l5.208,6.945l6.946,6.946l6.946,10.417l-0,6.942l5.208,5.208l10.417,5.208l26.041,3.475l39.93,10.417l31.25,5.208l10.416,3.471l15.625,6.946l6.946,1.733l6.942,-5.208l3.475,-5.208l8.679,-17.359l3.471,-5.208l5.208,-3.475l8.683,-1.733l12.15,-1.738l36.459,3.471l17.362,-0l69.446,-12.15l118.054,-0l-1.737,5.208l-17.359,38.192l-5.208,19.1l-3.475,17.358l1.738,34.725l3.47,19.096l0,8.679l-8.679,5.209l-10.416,1.737l-5.209,1.738l0,17.358l12.154,60.767l-6.945,17.358l-22.571,22.571l-6.942,5.208l-12.154,5.208l-5.208,5.209l-10.417,17.362l-6.946,19.096l-8.679,69.446l-0,5.208l-3.471,5.209l-13.892,6.941l-12.15,3.475l-20.833,3.471l-10.417,10.417l-3.475,15.625l0,55.554l-10.416,41.667l-57.292,119.791l-8.679,41.667l-8.679,19.1l-15.625,13.887l-8.684,19.096l1.738,36.459l6.946,34.725l12.15,17.358l22.57,13.892l-3.47,15.625l-13.892,17.358l-13.888,22.571l-3.47,17.362l1.733,19.096l-1.733,17.363l-8.684,15.625l-24.304,17.358l-10.417,6.946l-86.804,32.987l-38.196,22.567l-43.404,39.933l-17.358,24.304l-10.417,26.042l0,26.042l20.834,41.666l5.208,22.571l-10.417,19.096l-20.833,5.208l-24.308,0l-19.096,5.209l-10.417,15.625l-10.416,45.137l-6.946,19.1l-24.304,26.042l-27.78,22.567l-17.358,-17.359l-10.417,-6.946l-8.683,-5.208l-10.417,0l-15.625,3.471l-8.679,-0l-17.362,-3.471l-31.25,-10.417l-15.625,-3.47l-24.304,-0l-43.405,1.733l-20.833,-5.208l-13.887,-15.625l-10.417,-20.834l-12.154,-17.358l-6.942,-5.208l-19.1,-6.946l-8.679,-5.209l-5.208,-8.679l-5.209,-19.1l-5.208,-8.679l-17.363,-12.154l-19.095,-10.417l-15.625,-12.15l-6.946,-20.833l-3.471,-17.363l8.679,-3.47l41.667,-43.405l31.25,-50.345l12.154,-13.892l34.721,-52.083l3.475,-13.888l1.733,-10.417l-3.471,-15.625l-1.737,-10.416l6.945,-27.779l13.888,-12.15l5.208,-6.946l5.209,-10.417l6.946,-5.208l6.945,-1.738l10.417,1.738l10.417,5.208l12.15,1.738l8.683,3.47l17.358,13.888l8.684,-0l5.208,-5.208l5.208,-8.68l5.209,-5.208l8.679,-1.737l6.946,-1.734l8.679,-3.475l5.208,-5.208l8.679,-13.888l13.892,-19.095l10.417,-10.417l5.208,-6.946l3.471,-8.679l5.208,-29.517l1.738,-19.096l-1.738,-24.304l-1.737,-10.416l6.946,-53.821l-1.738,-24.304l1.738,-12.155l-1.738,-15.625l0,-8.679l-1.733,-6.946l-12.154,-12.154l-1.738,-5.208l-5.208,-3.471l-3.471,-3.471l-10.417,-3.475l-8.679,-8.679l-1.737,-5.208l-3.471,-6.946l-0,-13.888l3.471,-19.095l13.887,-53.821l0,-13.888l-3.471,-27.779l-1.737,-22.571l1.737,-29.512l6.946,-20.834l8.679,-19.095l3.471,-12.155l0,-8.679l-1.733,-15.625l-1.738,-8.683l-12.154,-19.096l-17.358,-20.833l-8.684,-13.888l-13.887,-31.25l-12.154,-24.308l-1.734,-8.679l1.734,-6.946l3.475,-5.209l3.471,-1.733l20.833,0l5.208,-3.475l8.679,-8.679l0,-19.096l3.475,-6.946l13.888,-10.416l6.946,-3.471l19.096,-24.309l15.625,-1.733l6.945,-1.737l6.942,-3.471l5.208,-8.684l3.475,-8.679l10.417,-53.821l-5.208,-34.72l-0,-10.417l1.733,-10.417l6.946,-17.362l-0,-8.679l-3.471,-5.209l-5.208,-5.208l-3.475,-13.888l-1.734,-8.683l1.734,-8.679l3.475,-8.679l8.679,-12.154l12.154,-12.155l17.358,-12.15l52.084,-31.25l19.1,-17.362Z" style="fill:#437290;fill-rule:nonzero;stroke:#fff;stroke-width:8.67px;"/><path id="ECL" d="M4421.88,4779.5l-19.096,24.308l-6.946,3.471l-13.887,10.417l-3.475,6.946l-0,19.096l-8.679,8.679l-5.209,3.475l-20.833,-0l-3.471,1.733l-3.475,5.208l-1.733,6.946l1.733,8.679l12.154,24.309l13.888,31.25l8.683,13.887l17.358,20.834l12.155,19.095l1.737,8.684l1.733,15.625l0,8.679l-3.47,12.154l-8.68,19.096l-6.945,20.833l-1.738,29.513l1.738,22.571l3.47,27.779l0,13.887l-13.887,53.821l-3.471,19.096l0,13.887l3.471,6.946l1.737,5.209l8.68,8.679l10.416,3.475l3.471,3.471l5.208,3.47l1.738,5.209l12.154,12.154l1.733,6.946l0,8.679l1.738,15.625l-1.738,12.154l1.738,24.304l-6.946,53.821l1.738,10.417l1.737,24.304l-1.737,19.096l-5.209,29.516l-3.471,8.68l-5.208,6.945l-10.417,10.417l-13.891,19.096l-8.679,13.887l-5.209,5.209l-8.679,3.475l-6.946,1.733l-8.679,1.738l-5.208,5.208l-5.209,8.679l-5.208,5.208l-8.683,0l-17.359,-13.887l-8.683,-3.471l-12.15,-1.737l-10.417,-5.209l-10.416,-1.737l-6.946,1.737l-6.946,5.209l-5.208,10.416l-5.209,6.946l-13.887,12.15l-6.946,27.779l1.738,10.417l3.47,15.625l-1.733,10.417l-3.475,13.887l-34.721,52.083l-12.154,13.892l-31.25,50.346l-41.667,43.404l-8.679,3.471l-24.304,-46.875l-10.417,-55.554l-27.779,-39.934l0,-20.833l22.571,-38.192l1.733,-13.891l-5.208,-8.679l-19.096,-12.155l-22.571,0l-5.208,-3.47l-13.887,-8.68l-6.946,-3.475l-46.875,-46.875l-26.042,-13.887l-34.721,5.208l-32.987,19.096l-62.5,19.1l-34.721,-5.208l-24.304,-24.309l-19.1,-29.512l-24.304,-22.571l-24.305,-5.208l-24.308,-0l-24.304,-3.471l-26.042,-13.888l-17.362,-13.891l-31.25,-32.984l-17.359,-13.891l-15.625,-6.942l-19.1,-3.475l-15.625,-5.208l-6.941,-8.679l-1.738,-0l-38.196,5.208l-10.416,3.471l-10.417,5.208l-6.942,5.208l-8.683,13.892l-8.679,32.983l-6.946,15.625l-15.625,15.625l-72.917,55.559l-38.191,20.833l-8.684,8.679l-24.304,0l-15.625,-5.208l-41.666,-24.304l-13.888,-10.417l-6.946,-20.833l3.471,-15.625l123.267,-164.934l10.416,-20.833l-43.404,5.208l-39.929,12.155l-32.987,-3.471l-19.096,-41.667l-0,-8.683l3.471,-19.096l-0,-8.679l-5.209,-12.154l-15.625,-20.834l-5.208,-12.154l1.737,-17.358l8.68,-24.309l10.416,-22.566l10.417,-15.625l13.887,-10.417l17.363,-5.208l38.196,-0l19.096,6.941l39.929,20.834l17.362,3.475l19.096,-8.684l17.363,-20.833l12.154,-20.833l13.887,-17.359l72.917,-32.987l15.625,-17.363l-0,-8.679l13.887,0l69.446,-3.471l59.029,-13.891l55.555,-26.042l19.095,-5.208l53.821,-5.209l17.363,0l13.887,3.475l19.096,6.942l15.625,1.738l60.767,-3.471l20.833,-5.209l13.888,-5.208l24.304,-27.779l10.416,-10.417l27.78,-15.625l13.887,-5.208l8.683,-5.208l8.68,-1.738l3.47,1.738l6.946,13.887l20.834,20.833l12.154,3.475l15.625,3.471l31.25,-5.208l12.15,1.737l19.1,6.942l10.416,1.738l17.359,1.737l17.362,-5.208l12.154,-5.209l13.888,-17.362l3.471,-8.679l1.737,-10.417l-8.679,-26.042l1.733,-5.208l5.209,-6.946l13.891,-13.887l3.471,-5.209l5.209,-10.416l5.208,-13.892l1.737,-13.888l-1.737,-13.887l-5.208,-10.417l-12.155,-12.154l-12.15,-6.946l-10.416,-10.416l-6.946,-5.209l-10.417,-1.733l-8.679,3.471l-5.208,5.208l-10.417,13.888l-12.154,12.154l-6.946,5.208l-6.942,3.471l-3.475,-6.942l-1.733,-8.683l1.733,-12.15l13.892,-43.404l-1.737,-12.154l1.737,-22.567l3.471,-10.417l5.208,-10.416l32.988,-38.196l3.471,-10.417l-0,-5.208l-3.471,-5.208l-5.209,-5.209l-13.891,-3.471l-5.209,-3.475l-3.47,-8.679l-5.209,-17.362l-1.737,-15.625l5.208,-50.346l24.308,10.417l24.305,3.47l32.987,0l26.042,-1.733l13.887,0l10.417,5.208l10.417,10.417l5.208,13.888l-0,27.779l1.737,20.833l5.209,12.15l10.416,12.154l24.305,10.417l19.095,-0l13.892,-1.738l26.042,-13.887l8.679,-1.738l5.208,5.209l6.946,19.1l10.417,19.096l27.775,46.875l6.946,17.362l-0,22.567l3.47,29.516l17.363,22.567Z" style="fill:#17bc37;fill-rule:nonzero;stroke:#fff;stroke-width:8.67px;"/><path id="ECO" d="M4086.8,4489.58l-5.208,50.346l1.737,15.625l5.209,17.363l3.471,8.679l5.208,3.475l13.892,3.471l5.208,5.208l3.471,5.208l-0,5.209l-3.471,10.416l-32.988,38.196l-5.208,10.417l-3.471,10.417l-1.737,22.566l1.737,12.154l-13.891,43.404l-1.734,12.15l1.734,8.684l3.475,6.941l6.941,-3.47l6.946,-5.209l12.154,-12.154l10.417,-13.887l5.208,-5.209l8.679,-3.471l10.417,1.734l6.946,5.208l10.417,10.417l12.15,6.946l12.154,12.154l5.208,10.416l1.738,13.888l-1.738,13.887l-5.208,13.892l-5.209,10.417l-3.47,5.208l-13.892,13.888l-5.208,6.945l-1.734,5.209l8.679,26.041l-1.737,10.417l-3.471,8.679l-13.887,17.363l-12.155,5.208l-17.362,5.208l-17.358,-1.737l-10.417,-1.738l-19.1,-6.941l-12.15,-1.738l-31.25,5.209l-15.625,-3.471l-12.154,-3.475l-20.834,-20.834l-6.946,-13.887l-3.47,-1.738l-8.68,1.738l-8.683,5.208l-13.887,5.209l-27.78,15.625l-10.416,10.416l-24.304,27.779l-13.888,5.209l-20.833,5.208l-60.767,3.471l-15.625,-1.738l-19.096,-6.941l-13.887,-3.475l-17.363,-0l-53.82,5.208l-19.096,5.209l-55.554,26.041l-59.03,13.892l-69.445,3.471l-13.888,-0l0,-1.738l-5.208,-5.208l-8.679,-5.208l-8.684,-8.68l-1.733,-8.679l-0,-17.362l-1.738,-8.679l-8.679,-19.1l-19.1,-29.513l-3.471,-19.096l1.738,-6.946l6.942,-13.887l-1.734,-10.417l-5.208,-17.362l-0,-24.304l6.942,-19.1l1.737,-8.68l-1.737,-10.416l-5.209,-19.096l0,-10.417l-1.733,-8.683l-8.683,-3.471l-10.417,-3.471l-5.208,-5.208l-0,-8.684l6.945,-24.304l1.738,-19.096l-0,-8.683l-1.738,-8.679l-6.945,-6.946l-13.888,-5.208l-6.946,-5.209l-1.733,-20.833l5.208,-19.096l3.471,-15.625l-13.887,-10.416l-36.459,-10.417l-20.833,-10.417l-3.475,-13.887l3.475,-10.417l12.15,-6.946l10.417,-24.304l8.683,-13.892l-8.683,26.042l-3.471,6.946l5.208,19.096l12.154,-8.679l5.209,-29.513l8.679,-13.892l26.041,26.042l12.155,-5.208l69.441,-13.888l10.417,1.738l8.683,1.733l6.942,0l8.683,-3.471l20.834,-26.041l5.208,-3.471l34.721,-72.917l10.416,-13.892l20.834,3.475l5.208,22.567l-6.946,45.142l10.417,-5.209l10.417,-20.833l8.683,-10.417l6.942,-6.945l31.25,-17.363l13.891,-17.358l8.679,-19.1l5.209,-20.834l3.471,-36.458l15.625,-34.721l20.833,-31.25l6.946,0l72.916,5.209l8.68,1.737l38.195,10.417l114.584,60.762l36.458,31.25l5.208,12.154l1.738,13.888l-1.738,13.887l-3.47,12.155l-20.834,41.666l-6.946,19.096l-3.47,8.683l-10.417,6.942l-17.363,8.683l-5.208,3.471l-1.737,8.679l17.362,8.684l32.988,-0l53.816,-12.154l34.725,-3.471l12.15,-0l15.625,3.471l31.25,10.416Z" style="fill:#437290;fill-rule:nonzero;stroke:#fff;stroke-width:8.67px;"/><path id="ECG" d="M3520.83,3862.85l43.405,1.737l64.233,39.93l39.933,10.416l-3.475,13.892l-5.208,6.942l-3.471,5.208l-10.417,8.683l-48.612,20.833l-1.734,6.942l-13.891,13.892l-3.471,5.208l-5.208,13.888l-6.946,13.887l-8.679,8.683l-1.738,0l-10.416,17.359l-10.417,22.571l-12.15,20.833l-6.946,15.625l-15.625,6.946l-12.154,13.887l1.737,22.571l-15.625,12.15l-5.208,13.892l-15.625,22.567l-32.988,-3.471l-19.095,10.416l-15.625,5.209l-22.571,-1.738l-22.567,-6.941l-13.892,-6.946l-5.208,-20.834l5.208,-32.987l3.475,-112.846l3.471,-12.154l32.988,-59.025l12.15,-38.196l13.891,-10.417l57.292,-15.625l52.083,-26.041l19.096,-6.946Zm281.25,378.475l-38.196,-10.417l-8.679,-1.737l-72.916,-5.209l-6.946,0l12.154,-19.095l6.946,-19.1l-8.684,-15.625l3.475,-22.567l12.151,-36.458l1.737,-15.625l29.513,-97.225l19.099,-34.721l3.471,-6.946l8.679,-19.096l3.475,-22.571l19.096,-53.816l12.154,-17.363l27.775,-27.779l8.684,-17.359l-0,-22.57l-5.209,-41.667l-13.891,-32.988l-1.734,-5.208l-31.25,0l-8.683,-3.471l-10.417,-17.362l-19.095,-50.346l-10.417,-19.096l-6.946,-12.154l-1.733,-12.154l1.733,-55.554l-6.942,-43.405l0,-12.15l5.209,-20.833l1.733,-12.154l-5.208,-10.417l-12.15,-15.625l-3.475,-3.471l-3.471,-10.416l-1.738,-6.946l0,-10.417l5.209,-10.416l5.208,-8.68l1.738,-8.683l-6.946,-10.417l15.625,-15.625l13.891,-5.208l12.15,-6.942l3.475,-20.833l8.68,-10.417l13.887,-8.683l15.625,-10.417l6.946,-19.095l-55.554,31.25l-5.209,5.208l-3.475,6.946l0,17.358l-6.941,3.475l-31.25,1.733l-6.946,6.946l-0,8.679l-8.679,22.571l-8.684,38.196l0,26.042l5.209,27.775l27.779,50.35l3.471,27.775l-15.625,184.029l-10.417,38.196l-5.208,10.417l-26.042,27.775l-8.679,6.945l-15.625,3.471l-32.988,19.1l-13.887,3.471l-8.679,-5.208l-5.209,-12.154l-8.683,-3.471l-19.096,3.471l-6.946,-3.471l-12.15,-8.679l-5.208,-15.625l12.15,-13.892l27.779,-19.096l8.679,-20.833l5.209,-13.888l8.683,-8.683l26.042,-1.733l5.208,3.47l6.942,8.68l6.946,6.945l10.416,0l8.679,-5.208l3.475,-8.679l0,-8.683l-5.208,-10.417l-5.208,19.1l-12.154,-3.475l-22.571,-20.833l-20.834,1.737l-17.358,8.679l-13.892,5.209l-5.208,-13.888l3.475,-20.833l17.358,-39.929l5.209,-22.571l3.475,-10.417l6.941,-5.208l12.155,-1.738l8.679,-5.208l6.946,-6.942l19.095,-29.516l-8.679,1.737l-3.471,3.471l-10.416,8.683l-6.946,3.471l-19.096,-1.737l-8.683,1.737l-12.15,6.946l-6.946,12.15l-41.667,104.167l-64.237,90.279l-27.775,31.25l-31.25,13.887l-6.946,12.154l-6.946,8.68l-8.679,5.208l-8.679,-0l-5.209,-3.471l-3.475,-6.946l-5.208,-5.208l-13.887,-6.942l-8.68,6.942l-3.475,15.625l3.475,19.1l29.513,29.512l3.471,6.946l-0,10.417l-1.734,20.833l-8.683,8.679l-20.833,-3.47l-39.929,-15.625l-39.93,-32.988l-13.891,-8.679l-12.15,-12.154l-5.209,-3.471l-6.945,-1.738l-15.625,-1.737l-8.68,-3.471l-36.458,-22.571l-71.183,-83.333l69.446,-64.233l55.554,-41.667l79.862,-19.1l46.875,-27.775l41.667,-62.5l13.887,-95.488l3.475,-83.333l-36.458,-57.292l-34.725,-31.25l-55.554,-32.987l-74.654,-17.359l-48.609,-29.516l-26.041,-45.138l-8.684,-39.929l38.196,0l27.78,-1.737l6.941,-3.471l5.209,-5.208l1.737,-6.946l1.738,-5.209l1.733,-6.945l-0,-8.68l1.737,-10.416l6.946,-10.417l8.679,-8.679l6.946,-10.417l5.209,-10.416l6.941,-8.684l10.417,-8.679l10.417,-5.208l12.154,-5.209l6.946,-5.208l8.679,-17.362l6.946,-5.209l8.679,-3.471l6.946,3.471l6.941,5.209l5.209,3.475l5.208,-1.738l6.946,-5.208l12.154,-6.946l36.458,1.737l13.888,-3.47l3.471,-8.684l-8.68,-27.775l-1.737,-8.683l-0,-8.679l1.737,-3.471l-1.737,-3.475l-6.942,-3.471l-8.683,-1.737l-10.417,-5.209l-12.15,-8.679l-8.683,-12.154l-5.208,-8.679l-0,-5.209l57.291,-8.679l31.25,-20.833l5.209,-8.683l-0,-6.942l-10.417,-15.625l-6.942,-20.833l0,-12.155l5.209,-24.304l3.47,-10.416l6.946,-8.684l3.471,-1.733l6.946,-1.738l13.887,-8.679l20.834,-6.946l5.208,-3.47l1.738,-6.946l-3.475,-20.834l1.737,-19.095l6.946,-13.892l10.417,-8.679l20.833,-8.679l36.458,-29.517l8.679,-12.15l19.096,-50.35l6.946,-29.513l8.679,-17.362l6.946,-22.567l5.208,-13.891l8.68,-10.417l6.945,-3.471l3.471,1.738l-1.733,6.941l-1.738,8.684l1.738,5.208l5.208,1.733l20.834,0l8.679,3.475l17.362,-5.208l13.888,-6.946l48.612,-39.929l10.417,-12.154l15.625,-26.042l12.15,-12.154l8.683,-10.417l6.942,-17.358l-0,-12.154l1.737,-8.679l3.471,-5.209l15.625,-8.683l3.475,-8.679l5.209,-12.154l3.47,-10.417l36.459,-50.346l8.679,-8.679l12.154,-5.208l15.625,-5.209l59.029,-10.416l31.25,-8.684l32.984,-3.471l15.625,0l12.154,6.946l5.208,15.625l-5.208,29.513l-13.888,41.666l0,8.68l3.471,6.945l0,5.209l-5.208,8.679l-6.946,3.475l-8.679,6.942l-5.209,6.945l-5.208,10.417l-1.737,6.946l-6.942,32.983l-5.208,10.417l-5.209,6.946l-17.362,3.471l-8.679,3.475l-5.209,5.208l-3.475,5.208l-10.416,12.15l-8.68,13.892l-6.945,5.208l-13.888,1.734l-6.946,1.737l-3.471,6.946l-1.737,10.417l-6.942,13.887l-5.208,1.738l-6.946,1.733l-6.946,3.475l-1.733,5.208l-1.738,10.417l-6.945,6.942l-10.417,1.737l-5.208,1.738l-3.471,1.733l-3.471,5.208l-0,24.309l-3.475,10.416l-1.733,8.679l-52.084,98.959l-8.683,10.416l-17.358,17.363l-15.625,26.042l-15.625,43.4l-1.738,10.416l-3.471,59.029l0,10.417l13.888,41.667l-1.738,6.946l-6.941,15.625l-0,12.15l1.733,12.154l1.737,10.416l5.209,5.209l76.387,39.929l13.892,13.892l10.417,19.095l6.941,19.096l8.684,15.625l22.566,31.25l6.946,12.154l12.154,31.25l22.567,39.93l5.208,20.833l6.946,6.946l20.833,5.208l32.988,-5.208l48.608,-17.363l15.625,-1.733l20.834,1.733l19.1,8.684l41.666,29.512l20.834,10.417l12.15,6.946l27.779,22.566l12.154,12.154l69.442,116.321l46.875,45.138l38.195,6.946l22.571,-0l6.942,-3.475l5.208,-6.942l8.684,-5.208l8.679,-0l8.679,8.679l3.475,6.946l-1.738,38.191l-13.887,27.779l-10.417,10.417l-12.154,10.417l-22.571,12.154l-20.833,8.679l-19.096,5.208l-111.112,19.096l-12.15,5.209l-12.155,6.945l-26.041,20.834l-10.417,10.416l-8.679,12.155l-0,22.566l-3.475,6.946l-0,6.946l1.737,8.679l3.471,6.946l0,5.208l-31.25,19.096l-53.816,48.613l1.733,13.887l8.683,6.946l13.888,1.733l22.571,-12.15l26.041,-8.683l12.15,24.308l6.946,12.15l-1.737,10.417l-5.209,8.683l-20.833,22.567l-8.679,6.946l-15.625,10.416l-204.863,215.28l-8.679,22.566l-3.471,22.571l1.734,17.363l5.208,26.041l1.737,27.775l0,6.946l-52.083,62.5l-5.208,12.154l-3.471,8.679l-1.738,17.363Zm-55.554,-545.142l10.417,24.309l22.567,8.679l12.154,20.833l-20.834,29.512l-32.987,17.363l-3.471,41.667l-22.571,13.887l-19.096,-1.733l-5.208,-20.834l13.888,-36.458l19.1,-50.35l26.041,-46.875Z" style="fill:#437290;fill-rule:nonzero;stroke:#fff;stroke-width:8.67px;"/><path id="ECSE" d="M3092.01,3090.28l8.683,39.929l26.041,45.138l48.609,29.516l74.654,17.359l55.554,32.987l34.725,31.25l36.458,57.292l-3.474,83.333l-13.888,95.488l-41.667,62.5l-46.875,27.775l-79.862,19.1l-55.554,41.667l-69.446,64.233l-29.513,-34.721l-76.387,-72.917l-31.25,-8.679l-27.779,-13.891l-29.513,1.737l-50.35,-17.362l-17.358,-6.942l-39.933,-34.725l-19.096,-8.679l-15.625,-0l-10.417,-1.738l-8.679,-8.679l-5.208,-31.25l-6.946,-15.625l-15.625,-20.833l-12.154,-13.888l-34.721,-27.779l-5.209,-5.208l-3.47,-10.417l-1.738,-8.679l3.471,-5.208l6.946,1.733l3.471,3.475l1.737,5.208l3.471,3.471l24.308,5.208l10.417,0l5.208,3.471l5.208,15.625l12.151,13.892l22.57,-1.738l34.721,-12.154l46.875,-38.191l38.196,-19.1l32.988,-36.459l6.941,-55.554l-13.887,-29.512l-6.946,-29.517l-3.471,-6.942l5.208,-10.416l10.417,-1.738l12.154,-6.946l3.471,-22.567l-3.471,-24.308l-26.041,-100.692l-13.892,-38.195l-5.208,-17.363l-8.68,-15.625l-8.679,-10.417l-12.154,-17.358l-5.208,-13.892l26.041,-5.208l17.363,1.738l6.942,-0l13.891,-5.209l67.709,3.471l17.358,-3.471l32.987,-10.416l17.363,-1.738l27.775,5.208l12.154,6.946l5.208,8.679l-1.737,8.684l-0,5.208l1.737,5.208l12.155,12.15l3.47,6.946l1.738,8.679l-3.475,27.78l-1.733,5.208l-10.417,17.362l-3.475,8.68l-3.471,17.362l1.738,8.679l8.679,10.417l13.887,6.946l20.834,5.208Z" style="fill:#437290;fill-rule:nonzero;stroke:#fff;stroke-width:8.67px;"/><path id="ECM" d="M3578.12,1034.72l22.571,57.292l12.15,15.625l6.946,3.475l13.887,3.47l10.417,0l1.737,-1.737l6.946,-5.208l13.888,-13.888l3.471,-8.679l5.208,-10.417l1.737,-10.416l0,-1.738l3.471,-3.471l3.475,0l1.734,-1.737l32.987,1.737l15.625,0l17.363,-3.475l12.15,-5.208l15.625,-10.417l19.1,-20.833l10.416,-6.942l12.15,-5.208l6.946,-1.738l5.208,0l5.209,3.471l3.471,1.738l10.416,6.946l6.946,8.679l1.738,1.737l1.733,3.471l-0,5.208l-10.417,10.417l-3.471,5.208l-3.47,6.946l-0,10.417l1.733,3.471l3.475,3.471l1.733,3.475l45.142,26.041l3.471,3.471l1.737,3.471l1.734,1.737l-0,1.738l-3.471,6.942l-5.209,5.208l-6.945,5.208l-5.209,3.475l-5.208,6.942l-3.471,6.946l-17.362,26.041l-1.734,1.738l1.734,3.471l13.891,13.887l5.209,1.738l3.47,1.737l3.471,-1.737l1.738,-1.738l6.946,-3.471l5.208,0l1.733,1.738l1.738,3.471l1.737,15.625l1.734,5.208l1.737,3.471l5.208,-0l1.738,-1.733l8.679,-5.209l5.208,-1.737l3.471,-0l27.779,27.779l8.68,3.471l5.208,1.737l6.946,0l1.737,1.734l1.734,-0l1.737,1.737l-1.737,1.737l-24.305,27.775l-3.47,6.946l-1.738,6.946l0,3.471l-1.737,3.471l-3.471,3.475l-3.471,-0l-5.208,5.208l-3.475,6.942l-0,6.946l3.475,8.679l-0,10.417l1.733,5.208l15.625,24.308l-6.942,8.679l-1.737,6.946l-1.738,10.417l3.475,19.096l5.209,8.679l8.679,6.946l5.208,1.737l6.946,3.471l6.942,6.946l12.154,6.942l6.946,6.945l24.304,29.513l24.304,22.571l6.946,3.471l32.987,10.416l27.775,0l8.684,3.475l3.47,6.942l-1.737,15.625l6.946,168.404l-3.471,13.888l-6.946,13.891l-29.512,46.875l-1.738,20.834l-1.737,8.679l-10.417,26.041l-15.625,20.834l-12.15,43.404l-8.683,20.833l-20.834,41.667l-10.416,32.983l-3.471,5.209l-8.679,6.945l-10.417,1.738l-8.683,5.208l-8.68,10.417l-8.679,17.358l-12.154,64.238l-19.096,38.196l-59.029,10.416l-15.625,5.209l-12.154,5.208l-8.679,8.679l-36.459,50.346l-3.47,10.416l-5.209,12.155l-3.475,8.679l-15.625,8.683l-3.471,5.208l-1.737,8.68l-0,12.154l-6.942,17.358l-8.683,10.417l-12.15,12.154l-15.625,26.042l-10.417,12.154l-48.612,39.929l-13.888,6.946l-17.362,5.208l-8.679,-3.475l-20.834,0l-5.208,-1.733l-1.738,-5.209l1.738,-8.683l1.733,-6.942l-3.471,-1.737l-6.945,3.471l-8.68,10.416l-5.208,13.892l-6.946,22.567l-8.679,17.362l-6.946,29.513l-19.096,50.35l-8.679,12.15l-36.458,29.516l-20.833,8.68l-10.417,8.679l-6.946,13.891l-1.737,19.096l3.475,20.834l-1.738,6.945l-5.208,3.471l-20.834,6.946l-13.887,8.679l-6.946,1.738l-3.471,1.733l-6.946,8.683l-3.47,10.417l-5.209,24.304l0,12.154l6.942,20.834l10.417,15.625l-0,6.941l-5.209,8.684l-31.25,20.833l-57.291,8.679l-0,5.209l5.208,8.679l8.683,12.154l12.15,8.679l10.417,5.208l8.683,1.738l6.942,3.471l1.737,3.475l-1.737,3.471l-0,8.679l1.737,8.683l8.68,27.775l-3.471,8.683l-13.888,3.471l-36.458,-1.737l-12.154,6.946l-6.946,5.208l-5.208,1.737l-5.209,-3.475l-6.941,-5.208l-6.946,-3.471l-8.679,3.471l-6.946,5.208l-8.679,17.363l-6.946,5.208l-12.154,5.209l-10.417,5.208l-10.417,8.679l-6.941,8.683l-5.209,10.417l-6.946,10.417l-8.679,8.679l-6.946,10.417l-1.737,10.416l-0,8.679l-1.733,6.946l-1.738,5.209l-1.738,6.945l-5.208,5.209l-6.942,3.471l-27.779,1.737l-38.196,0l-20.833,-5.208l-13.887,-6.946l-8.68,-10.417l-1.737,-8.679l3.471,-17.362l3.475,-8.68l10.416,-17.362l1.734,-5.208l3.475,-27.78l-1.738,-8.679l-3.471,-6.946l-12.154,-12.15l-1.737,-5.208l-0,-5.208l1.737,-8.684l-5.208,-8.679l-12.154,-6.946l-27.775,-5.208l-17.363,1.738l-32.987,10.416l-17.359,3.471l-67.708,-3.471l-13.892,5.209l-6.941,-0l-17.363,-1.738l-26.041,5.208l-15.625,-41.666l-13.888,-15.625l-3.475,-12.15l-1.733,-13.892l3.471,-10.417l32.987,-24.304l-3.475,-20.833l0,-27.779l8.683,-6.942l10.417,-10.417l12.15,-3.475l15.625,0l3.475,-12.15l0,-13.891l1.733,-17.359l5.209,-17.362l-5.209,-20.833l5.209,-13.888l15.625,-6.946l-1.734,-24.304l-27.779,-38.196l-55.554,-67.708l-45.142,-79.863l-20.833,-46.875l-12.15,-27.775l6.942,-19.1l10.416,-12.15l13.892,-10.416l12.15,-13.892l6.946,-8.679l6.946,-10.417l12.15,-12.154l12.154,-13.887l1.737,-6.946l10.417,-5.209l13.888,3.475l12.154,0l13.887,-6.945l12.154,-5.209l13.888,3.471l12.154,-5.208l10.417,-3.471l-1.738,8.679l17.363,6.946l13.887,1.737l12.154,-10.416l6.942,-1.738l6.946,-10.416l10.417,-1.738l8.679,12.154l8.683,1.738l17.358,1.733l22.571,-8.679l20.834,-17.363l20.833,-22.566l13.887,-59.029l15.625,-78.125l17.363,-46.875l20.833,-43.405l12.154,-27.775l5.209,-5.208l6.941,-5.208l13.892,-1.738l12.15,-5.208l1.738,24.304l13.887,19.1l24.308,12.15l24.305,3.475l50.345,0l0,-10.417l-26.041,-6.945l-27.775,-6.946l-19.1,-0l-13.888,-10.417l-10.416,-26.042l-12.155,-22.566l-12.15,-5.209l-6.945,-8.683l-1.738,-22.567l-10.417,-27.779l-1.733,-26.041l-13.892,-29.513l-17.358,-20.833l-12.154,-39.934l10.417,-13.887l19.095,-1.738l31.25,-24.304l29.517,-43.404l8.679,-17.358l3.471,-12.154l8.683,-20.834l6.942,-15.625l20.833,-6.946l12.155,-19.095l12.154,-20.834l17.358,15.625l20.833,-10.416l22.571,-17.363l26.042,-19.096l55.554,-60.762l45.142,-57.292l15.625,-19.1l6.941,-19.096l1.738,-12.154l5.208,-3.471l5.209,-1.737l19.095,-6.942l15.626,-34.725l6.945,-31.25l5.209,-50.346l-0,-22.571l-8.679,-39.929l-1.738,-71.179l8.679,-24.308l0,-8.679l3.475,-3.471l8.679,5.208l5.209,5.208l3.47,6.942l5.209,13.892l6.946,-0l-0,-12.154l5.208,-6.946Z" style="fill:#437290;fill-rule:nonzero;stroke:#fff;stroke-width:8.67px;"/><path id="ECA" d="M4940.96,3769.1l-5.208,27.779l1.737,10.417l3.471,8.679l6.946,6.946l8.679,3.471l6.946,-0l3.471,-5.209l1.737,-10.416l3.471,-10.417l5.209,-10.417l10.416,-8.679l17.363,-6.946l8.679,0l5.208,3.475l29.517,20.833l6.942,6.942l3.475,8.683l1.733,6.942l0,8.683l-3.471,8.68l-10.417,8.679l-104.166,52.083l-8.679,8.683l-8.684,10.417l-29.512,53.817l-1.738,6.946l3.475,6.945l5.209,6.942l8.679,8.683l6.946,10.417l3.47,8.679l0,8.679l-5.208,13.892l-45.137,72.917l-8.684,26.041l-22.566,46.875l-3.475,13.888l-0,15.625l1.737,13.887l-3.471,17.363l-8.683,15.625l-24.304,27.779l-24.304,19.096l-31.25,17.362l-34.725,10.417l-19.096,19.096l-116.321,92.012l-5.208,10.417l-1.734,6.946l5.209,15.625l-19.1,17.362l-52.084,31.25l-17.358,12.15l-12.154,12.155l-8.679,12.154l-3.475,8.679l-1.734,8.679l1.734,8.683l3.475,13.888l5.208,5.208l3.471,5.209l-0,8.679l-6.946,17.362l-1.733,10.417l-0,10.417l5.208,34.72l-10.417,53.821l-3.475,8.679l-5.208,8.684l-6.942,3.471l-6.945,1.737l-15.626,1.733l-17.362,-22.566l-3.471,-29.517l0,-22.567l-6.946,-17.362l-27.775,-46.875l-10.416,-19.096l-6.946,-19.1l-5.208,-5.208l-8.68,1.737l-26.041,13.888l-13.892,1.737l-19.096,0l-24.304,-10.416l-10.417,-12.155l-5.208,-12.15l-1.738,-20.833l0,-27.779l-5.208,-13.888l-10.417,-10.416l-10.416,-5.209l-13.888,0l-26.041,1.734l-32.988,-0l-24.304,-3.471l-24.308,-10.417l-31.25,-10.416l-15.625,-3.471l-12.15,-0l-34.725,3.471l-53.817,12.154l-32.987,-0l-17.363,-8.684l1.738,-8.679l5.208,-3.471l17.362,-8.683l10.417,-6.942l3.471,-8.683l6.946,-19.096l20.833,-41.666l3.471,-12.155l1.737,-13.887l-1.737,-13.888l-5.208,-12.154l-36.459,-31.25l-114.583,-60.762l1.737,-17.363l3.471,-8.679l5.209,-12.154l52.083,-62.5l-0,-6.946l-1.738,-27.775l-5.208,-26.042l-1.733,-17.362l3.47,-22.571l8.68,-22.567l204.862,-215.279l15.625,-10.416l8.679,-6.946l20.834,-22.567l5.208,-8.683l1.738,-10.417l-6.946,-12.15l-12.15,-24.308l31.25,1.737l15.625,8.679l10.416,12.155l17.359,36.458l8.683,10.417l12.15,5.208l24.308,1.737l15.625,10.417l6.942,8.679l10.417,20.834l8.683,10.416l83.333,86.804l12.15,8.684l10.417,3.471l10.417,-6.946l1.737,-6.942l1.738,-8.683l-0,-8.679l5.208,-5.209l8.679,-5.208l19.096,-8.679l6.946,-5.209l5.208,-6.945l1.738,-6.946l3.47,-6.942l5.209,-3.475l6.946,-1.733l10.416,5.208l12.15,6.942l13.892,12.154l12.15,13.887l27.779,34.725l17.363,12.15l20.833,20.834l5.208,8.683l3.471,10.417l5.208,22.566l5.209,10.417l13.887,5.208l34.725,3.475l13.888,0l10.417,-1.737l8.679,-3.471l6.946,0l8.679,1.733l5.208,1.738l5.208,-1.738l0,-5.208l-1.733,-15.625l1.733,-8.679l3.475,-6.946l17.359,-22.567l3.475,-5.208l1.733,-6.946l0,-6.946l-3.471,-8.679l-1.737,-10.416l1.737,-8.68l6.946,-10.416l6.942,-6.946l10.416,-3.471l12.154,0l19.096,3.471l6.946,-0l8.679,-5.208l12.154,-8.68l19.096,-15.625l8.684,-6.945l22.566,-5.209l10.417,-3.471l13.892,-10.416l5.208,-12.154l1.733,-10.417l5.209,-10.417l8.683,-10.416l34.721,-24.305l13.887,1.734Z" style="fill:#437290;fill-rule:nonzero;stroke:#fff;stroke-width:8.67px;"/><path id="ECF" d="M4913.21,3532.99l0,10.416l13.888,6.942l57.292,26.042l13.887,10.416l6.946,10.417l-1.738,8.683l-1.733,10.417l1.733,53.817l-5.208,17.362l0,20.833l-1.733,6.946l-3.475,6.942l-22.567,34.725l-8.683,12.15l-5.209,1.737l-1.733,1.738l-6.946,-0l-6.946,-3.475l-13.887,-1.733l-34.721,24.304l-8.683,10.416l-5.209,10.417l-1.733,10.417l-5.208,12.154l-13.892,10.417l-10.417,3.47l-22.566,5.209l-8.684,6.946l-19.095,15.625l-12.155,8.679l-8.679,5.208l-6.946,0l-19.095,-3.471l-12.155,0l-10.416,3.471l-6.942,6.946l-6.946,10.417l-1.737,8.679l1.737,10.416l3.471,8.68l0,6.945l-1.733,6.946l-3.475,5.209l-17.359,22.566l-3.475,6.946l-1.733,8.679l1.733,15.625l0,5.209l-5.208,1.737l-5.208,-1.737l-8.679,-1.734l-6.946,0l-8.679,3.471l-10.417,1.738l-13.888,-0l-34.725,-3.475l-13.887,-5.209l-5.208,-10.416l-5.209,-22.567l-3.471,-10.417l-5.208,-8.683l-20.833,-20.833l-17.363,-12.15l-27.779,-34.725l-12.15,-13.888l-13.892,-12.154l-12.15,-6.942l-10.416,-5.208l-6.946,1.733l-5.208,3.475l-3.471,6.942l-1.738,6.946l-5.208,6.946l-6.946,5.208l-19.096,8.679l-8.679,5.208l-5.208,5.209l-0,8.679l-1.738,8.683l-1.737,6.942l-10.417,6.946l-10.417,-3.471l-12.15,-8.683l-83.333,-86.805l-8.683,-10.416l-10.417,-20.834l-6.942,-8.679l-15.625,-10.416l-24.308,-1.738l-12.15,-5.208l-8.683,-10.417l-17.359,-36.458l-10.416,-12.154l-15.625,-8.68l-31.25,-1.737l-26.042,8.683l-22.571,12.15l-13.887,-1.733l-8.684,-6.946l-1.733,-13.887l53.817,-48.613l31.25,-19.096l-0,-5.208l-3.471,-6.946l-1.738,-8.679l0,-6.946l3.475,-6.946l0,-22.566l8.68,-12.155l10.416,-10.416l26.042,-20.834l12.154,-6.945l12.15,-5.209l111.113,-19.096l19.095,-5.208l20.834,-8.679l22.57,-12.154l12.155,-10.417l10.416,-10.417l13.888,-27.779l3.471,26.042l1.737,5.208l6.946,8.684l10.417,6.941l5.208,1.738l3.471,5.208l5.208,13.888l5.209,6.945l5.208,3.471l17.362,13.892l31.25,41.667l13.888,13.887l13.887,8.679l19.1,8.684l19.096,12.15l12.154,5.208l20.834,3.475l27.775,-3.475l29.516,-6.942l32.984,-15.625l15.625,-13.891l20.833,-20.834l24.308,-8.679l34.721,-8.679l118.054,-13.892l19.1,8.684Z" style="fill:#26d52d;fill-rule:nonzero;stroke:#fff;stroke-width:8.67px;"/><path id="ECN" d="M5348.96,2519.1l1.738,102.433l-6.946,27.775l-26.042,48.613l-22.57,20.833l-19.096,19.096l-8.68,6.946l-15.625,6.946l-13.891,5.208l-22.567,-0l-32.987,-5.208l-12.155,3.47l-19.095,10.417l-10.417,6.946l-15.625,20.833l-6.946,-8.683l-3.471,-17.358l-3.471,-5.209l-6.945,-3.475l-12.155,-3.471l-10.416,-6.945l-10.417,-3.471l-17.358,-5.209l-12.154,-5.208l-22.571,-15.625l-12.15,-5.208l-10.417,1.737l-8.683,8.679l-6.942,15.625l-8.683,10.417l-10.417,3.471l-15.625,-3.471l-13.887,-1.737l-19.096,3.475l-15.625,5.208l-22.571,3.471l-24.304,-1.738l-50.35,-10.416l-22.567,-8.68l-19.1,-10.416l-27.775,-20.834l-13.892,-6.945l-12.15,-3.471l-12.154,1.737l-12.154,5.209l-31.25,19.095l-19.096,6.946l-8.679,-12.154l-10.417,-13.887l-22.57,-32.988l-3.471,-12.154l10.416,-46.875l6.942,-17.358l12.154,-27.78l3.471,-15.625l1.738,-36.458l3.47,-12.154l19.1,-36.458l27.775,-10.417l26.042,-22.567l22.571,-6.946l17.362,-3.47l17.359,-1.738l43.404,10.417l24.304,-0l15.625,-3.471l13.892,-6.946l22.566,-17.363l10.417,-3.47l24.308,-1.738l8.68,-3.471l6.945,-5.208l3.471,-6.946l0,-19.096l10.417,-8.679l10.417,-1.737l8.679,-0l13.891,6.945l5.209,5.209l6.941,5.208l12.155,5.208l22.57,-1.737l12.15,-5.208l8.684,-10.417l10.416,-19.096l0,-15.625l1.734,-10.417l3.475,-8.683l8.679,-17.358l27.779,-24.309l19.096,32.988l24.304,27.779l8.683,17.359l3.471,13.891l0,43.4l-1.737,13.892l-1.734,8.679l-8.683,17.363l-3.471,10.416l3.471,3.471l5.208,0l32.988,-19.096l12.154,-3.475l12.15,0l20.833,5.209l6.946,-0l15.625,-3.471l10.417,-1.738l3.471,3.475l3.475,5.209l1.733,8.679l5.208,1.737l10.417,-1.737l5.208,-0l3.475,5.208l8.68,19.096l15.625,5.208l31.25,3.475l6.945,6.942l3.471,8.683l0,22.567Z" style="fill:#ef5c41;fill-rule:nonzero;stroke:#fff;stroke-width:8.67px;"/><path id="ECT" d="M5614.58,1328.12l41.667,10.417l8.679,5.208l0,8.679l-3.471,3.475l0,1.734l-1.737,5.208l-0,8.683l5.208,31.25l6.946,17.359l12.154,8.683l17.358,3.471l93.75,1.737l26.042,6.942l12.154,5.208l10.417,6.946l6.946,-1.737l10.416,-6.942l19.096,-20.833l10.417,-6.946l17.362,-1.738l8.68,-3.471l5.208,-5.208l3.471,-5.208l3.475,-3.471l3.471,-1.738l5.208,-1.737l12.154,-8.679l10.417,-5.209l6.941,3.471l3.475,6.946l3.471,8.679l3.471,6.946l1.738,5.208l1.737,3.471l-5.208,15.625l-0,3.475l3.471,8.679l-0,8.68l-1.738,6.945l-1.733,5.209l-0,6.946l1.733,5.208l8.683,3.471l43.4,10.416l17.363,1.738l10.417,-0l5.208,-3.475l6.946,-5.208l5.208,-8.68l10.417,-19.095l6.941,-12.155l24.309,-29.512l10.416,67.708l-3.475,8.679l-1.733,26.042l-3.475,13.888l0,8.683l5.208,10.417l6.946,8.679l12.154,15.625l10.417,17.362l3.471,6.942l-1.738,6.946l0,5.208l-3.47,5.208l-0,3.471l8.679,17.363l-1.734,13.887l-1.737,8.684l-6.946,5.208l-3.471,5.208l-1.737,5.209l-0,15.625l-3.471,8.679l-6.946,6.946l-10.417,5.208l-29.512,12.15l-3.471,13.892l1.733,15.625l-3.47,5.208l-3.471,1.733l-12.154,-3.471l-5.209,0l-5.208,3.471l-3.471,6.946l-10.417,22.571l-22.57,38.192l-8.68,6.945l-10.416,3.471l-12.154,1.738l-17.363,-1.738l-24.304,-8.679l-20.833,-8.679l-39.93,-26.042l-12.154,-3.475l-8.679,1.738l-3.475,6.945l0,6.942l1.738,12.154l-10.417,13.888l-29.513,17.362l-10.416,6.946l-5.209,6.942l0,8.683l1.734,6.942l12.154,6.946l8.679,1.737l10.417,5.208l10.416,8.68l26.042,32.987l10.417,20.833l3.475,5.209l13.887,8.679l6.946,6.946l5.208,8.679l6.942,24.304l1.738,12.154l-3.471,8.679l-12.154,19.1l-6.946,10.417l-6.942,15.625l-6.946,17.358l0,13.892l6.946,29.513l-1.737,13.887l-22.571,53.821l-6.942,12.154l-8.683,10.417l-8.679,8.679l-0,8.679l12.154,6.946l20.833,3.471l22.567,-1.734l19.1,-3.475l15.625,-6.941l1.733,-3.475l19.1,-3.471l10.417,-8.679l147.566,-71.184l34.725,-12.15l6.942,-3.475l13.892,-15.625l22.566,-45.137l41.667,-39.929l12.154,-5.209l12.154,-8.683l13.888,0l6.946,5.208l1.733,5.209l-3.471,10.416l-8.679,10.417l-45.142,43.404l-10.416,15.625l-6.942,15.625l-1.737,13.888l3.47,15.625l5.209,8.683l10.416,3.471l6.946,3.471l8.679,3.475l43.405,29.512l15.625,6.946l39.929,5.208l12.154,3.471l5.208,5.209l0,5.208l-6.946,10.417l-15.625,13.887l-1.733,6.946l3.471,6.946l5.208,5.208l8.679,10.417l-8.679,20.833l-156.25,10.417l-13.887,3.471l-10.417,3.47l-10.417,6.946l-20.833,12.154l-90.279,27.775l-26.042,5.209l-31.25,-0l-10.416,3.475l-12.155,6.941l-83.333,38.196l-45.137,3.471l-12.155,3.475l-12.15,5.208l-19.1,0l-13.887,-3.475l-36.458,5.209l-10.417,5.208l-17.363,10.417l-12.15,1.737l-19.1,8.679l-10.416,3.475l-36.459,26.042l-22.566,10.417l-13.892,3.471l-12.15,-3.471l-8.683,-3.475l-6.942,-3.471l-5.208,-0l-3.475,3.471l-5.209,13.891l-6.941,5.209l-8.684,-1.738l-8.679,-5.208l-10.416,-3.471l-13.888,-3.475l-22.571,0l-67.708,12.154l-26.042,1.738l-46.875,-3.475l0,-22.567l-3.471,-8.683l-6.945,-6.942l-31.25,-3.475l-15.625,-5.208l-8.68,-19.096l-3.475,-5.208l-5.208,-0l-10.417,1.737l-5.208,-1.737l-1.733,-8.679l-3.475,-5.209l-3.471,-3.475l-10.417,1.738l-15.625,3.471l-6.946,-0l-20.833,-5.209l-12.15,0l-12.154,3.475l-32.988,19.096l-5.208,0l-3.471,-3.471l3.471,-10.416l8.683,-17.363l1.734,-8.679l1.737,-13.892l0,-43.4l-3.471,-13.891l-8.683,-17.359l-24.304,-27.779l-19.096,-32.988l-15.625,-8.679l-22.571,-3.47l-6.946,-5.209l-1.733,-5.208l1.733,-6.946l5.209,-3.471l10.416,-10.417l1.738,-8.683l-0,-13.887l1.737,-8.679l5.209,-13.892l10.416,-13.888l10.417,-19.095l3.471,-19.1l-1.738,-20.834l-5.208,-32.983l-10.417,-32.988l0,-10.416l8.684,-24.304l19.096,-8.684l12.154,-3.471l24.304,-5.208l6.946,-5.208l5.208,-6.946l3.471,-12.15l3.471,-26.042l5.208,-12.154l8.683,-12.154l17.359,-17.358l10.416,-15.625l10.417,-19.1l0,-20.834l1.738,-10.416l5.208,-10.417l10.417,-19.096l5.208,-12.154l1.737,-10.417l-13.891,-26.041l5.208,-13.888l10.417,-17.362l26.041,-34.721l10.417,-22.571l6.946,-22.567l3.471,-85.071l-1.734,-10.416l1.734,-6.946l6.946,-5.208l8.679,-3.471l8.683,-1.738l22.567,-6.941l6.946,-0l6.945,3.47l10.417,8.68l5.208,3.475l6.942,-1.738l12.154,-3.471l8.679,-8.683l10.417,-19.096l1.738,-8.679l3.47,-8.683l3.475,-1.734l8.68,1.734l19.095,3.475l10.417,-0l5.208,-3.475l10.417,-17.359l3.475,-5.208l6.942,-1.738l3.475,-5.208l3.471,-10.417l1.737,-24.304l3.471,-8.683l6.946,-6.942l32.983,-10.416l67.708,-34.725l10.417,-8.68l12.154,-20.833Z" style="fill:#ea5555;fill-rule:nonzero;stroke:#fff;stroke-width:8.67px;"/><path id="ECH" d="M5125,2793.4l-8.679,15.625l-1.738,6.942l0,13.892l8.68,26.041l1.737,8.679l-1.737,10.417l-3.471,8.679l-6.946,8.683l-8.679,6.942l-22.571,12.154l-8.679,6.946l-6.946,8.679l-6.942,10.417l-6.946,5.208l-5.208,6.946l-5.208,5.209l-5.209,8.679l-1.737,10.416l-0,19.096l1.737,17.363l3.471,13.887l3.475,8.683l10.417,10.417l3.471,8.679l3.471,22.571l6.945,27.775l-3.47,12.154l-38.196,41.667l-24.304,39.929l-3.475,10.417l-0,12.154l3.475,6.946l6.941,6.942l6.946,5.208l6.946,8.683l3.471,12.15l-0,22.571l3.471,10.417l8.683,19.096l-1.738,6.945l-12.154,8.68l-13.887,6.945l-13.888,10.417l-8.683,15.625l-6.942,26.042l3.471,36.458l1.738,5.208l3.47,5.209l0,5.208l-5.208,6.946l-15.625,12.15l-8.679,8.683l-5.208,13.888l-0,10.416l-3.475,12.155l-5.209,8.679l-32.983,22.571l-19.1,-8.684l-118.054,13.892l-34.721,8.679l-24.308,8.679l-20.834,20.834l-15.625,13.891l-32.983,15.625l-29.517,6.942l-27.775,3.475l-20.833,-3.475l-12.154,-5.208l-19.096,-12.15l-19.1,-8.684l-13.888,-8.679l-13.887,-13.887l-31.25,-41.667l-17.363,-13.892l-5.208,-3.471l-5.208,-6.945l-5.209,-13.888l-3.47,-5.208l-5.209,-1.738l-10.416,-6.941l-6.946,-8.684l-1.738,-5.208l-3.471,-26.042l50.346,-26.041l32.988,-34.721l19.096,-26.042l3.475,-10.417l1.733,-10.416l-1.733,-10.417l-5.209,-8.679l-1.737,-8.683l-1.738,-12.15l24.309,-119.792l-0,-10.417l-5.209,-20.833l-3.475,-29.517l3.475,-41.666l0,-17.359l3.471,-8.683l5.208,-6.942l8.68,-6.946l10.416,-6.945l34.725,-3.471l12.15,-3.471l32.988,-29.517l19.096,-29.512l10.416,-24.304l3.475,-26.042l-1.737,-31.25l1.737,-20.833l3.471,-22.571l0,-15.625l-5.208,-12.154l-15.625,-24.305l-5.209,-12.154l-1.737,-8.679l1.737,-19.096l19.096,-6.946l31.25,-19.095l12.154,-5.209l12.155,-1.737l12.15,3.471l13.891,6.945l27.775,20.834l19.1,10.416l22.567,8.68l50.35,10.416l24.304,1.738l22.571,-3.471l15.625,-5.208l19.096,-3.475l13.887,1.737l15.625,3.471l10.417,-3.471l8.683,-10.417l6.942,-15.625l8.683,-8.679l10.417,-1.737l12.15,5.208l22.571,15.625l12.154,5.208l17.358,5.209l10.417,3.471l10.417,6.945l12.154,3.471l6.946,3.475l3.47,5.209l3.471,17.358l6.946,8.683Z" style="fill:#32b916;fill-rule:nonzero;stroke:#fff;stroke-width:8.67px;"/><path id="ECB" d="M4395.83,3430.55l1.738,-38.192l-3.475,-6.945l-8.679,-8.68l-8.68,0l-8.683,5.209l-5.208,6.942l-6.942,3.474l-22.571,0l-38.196,-6.945l15.625,-29.513l6.946,-31.25l6.946,-15.625l0,-8.683l-6.946,-12.15l-31.25,-52.084l-31.25,-39.933l0,-8.679l3.471,-6.946l12.154,-8.679l3.471,-5.208l15.625,-62.5l8.684,-17.363l3.47,-13.887l-5.208,-10.417l-6.946,-10.417l-6.941,-12.154l-3.476,-12.15l0,-10.417l3.475,-17.362l-1.737,-8.679l-27.779,-41.667l-10.417,-20.833l-6.941,-8.683l-6.946,-3.471l-5.209,-0l-5.208,-1.738l-3.471,-5.208l-5.208,-1.734l-6.946,-1.737l-5.208,-1.738l-3.471,-5.208l1.733,-5.208l5.208,-3.471l8.684,-5.208l6.941,-6.946l26.042,-29.513l5.208,0l5.209,1.738l5.208,3.471l3.475,-0l5.208,-3.471l5.209,-8.683l3.471,-8.68l5.208,-13.887l1.737,-12.154l-5.208,-12.154l-8.683,-6.942l-29.513,-19.1l-13.887,-13.888l-6.946,-15.625l-5.208,-20.833l1.737,-72.917l1.733,-8.679l5.209,-6.946l8.683,0l5.208,-1.737l5.209,-5.208l1.733,-5.209l0,-5.208l-27.775,-19.096l-8.683,-17.362l-6.942,-3.471l-5.208,-0l-5.209,5.208l-12.154,17.363l-6.946,6.941l-8.679,3.475l-6.946,-1.737l-1.733,-5.209l1.733,-12.154l13.892,-17.358l22.567,-34.725l17.362,-24.304l45.138,-20.834l43.404,-3.47l69.446,-34.725l20.833,-5.209l27.775,-3.471l12.154,0l13.888,1.738l5.208,5.208l10.417,13.888l29.516,17.362l17.359,8.679l22.571,6.946l20.833,-1.737l15.625,-5.209l26.042,-20.833l15.625,-8.679l12.154,-1.738l26.041,8.68l-19.1,36.458l-3.47,12.154l-1.738,36.458l-3.471,15.625l-12.154,27.78l-6.942,17.358l-10.416,46.875l3.471,12.154l22.57,32.988l10.417,13.887l8.679,12.154l-1.737,19.096l1.737,8.679l5.209,12.154l15.625,24.305l5.208,12.154l-0,15.625l-3.471,22.571l-1.737,20.833l1.737,31.25l-3.475,26.042l-10.417,24.304l-19.095,29.512l-32.988,29.517l-12.15,3.471l-34.725,3.471l-10.417,6.945l-8.679,6.946l-5.208,6.942l-3.471,8.683l0,17.359l-3.475,41.666l3.475,29.517l5.208,20.833l0,10.417l-24.308,119.792l1.738,12.15l1.737,8.683l5.208,8.679l1.734,10.417l-1.734,10.416l-3.475,10.417l-19.095,26.042l-32.988,34.721l-50.346,26.041Z" style="fill:#437290;fill-rule:nonzero;stroke:#fff;stroke-width:8.67px;"/><path id="ECI" d="M4506.96,1107.64l22.567,-0l3.475,-3.471l5.208,-6.946l31.25,-48.608l19.096,-20.834l10.417,-6.946l1.737,-1.737l0,-10.417l3.471,-6.941l5.209,-6.946l22.57,-22.571l17.359,-10.417l12.154,-3.471l10.416,-1.737l27.78,10.417l32.983,3.475l10.417,3.47l19.1,3.471l10.416,1.738l8.679,-0l8.68,3.471l19.1,19.1l8.679,5.208l5.208,1.733l6.946,0l6.942,-3.471l15.625,-12.154l15.625,-17.358l31.25,-41.667l31.25,-32.987l12.154,-19.096l8.679,-6.946l29.517,-22.571l8.679,-3.471l8.679,0l13.892,1.738l10.416,-0l13.888,-1.738l8.679,-3.47l6.946,-5.209l5.208,-6.946l1.738,-12.154l-0,-13.887l-8.684,-15.625l-24.304,-31.25l-5.208,-8.679l-5.209,-10.417l-6.945,-27.779l-3.471,-10.417l-27.779,-50.346l-1.734,-8.683l1.734,-5.208l8.683,-5.209l8.679,-1.733l17.363,-1.738l6.941,-1.737l6.946,-5.208l8.679,-6.942l5.209,-10.417l1.737,-13.891l-1.737,-17.359l1.737,-36.458l13.888,6.942l17.362,5.208l34.721,3.475l12.154,3.471l6.946,3.471l17.358,15.625l41.667,27.779l29.517,26.041l22.566,26.042l24.309,43.404l36.458,46.875l20.833,53.817l0,8.683l-1.737,26.042l1.737,17.358l5.209,17.363l10.416,13.887l34.721,6.946l6.946,5.208l12.15,8.68l19.1,3.475l15.625,1.733l32.983,8.683l43.404,24.304l38.196,26.042l43.4,24.304l12.154,8.684l15.625,20.833l22.571,10.417l-29.516,38.191l-5.209,12.154l0,8.68l3.475,3.475l5.209,-0l3.47,1.733l1.738,1.737l1.733,3.471l0,3.475l-3.471,3.471l-3.47,1.738l-12.155,13.887l-17.362,24.304l-3.471,5.209l-3.471,3.475l-5.208,1.733l-3.475,1.737l-5.208,1.738l-13.888,8.679l-32.987,34.721l-107.638,-32.983l-15.625,-1.738l-12.154,6.946l-22.567,17.358l-15.625,10.417l-41.666,19.1l-26.042,6.942l-22.571,-0l-26.042,-6.942l-17.362,-8.683l-13.888,-10.417l-31.25,-26.042l-8.679,0l-10.416,3.475l-17.363,15.625l-5.208,1.734l-1.738,-3.471l0,-6.946l6.946,-17.358l0,-8.684l-3.471,-20.833l-6.946,-6.942l-15.625,-6.946l-26.041,-1.737l-48.613,1.737l-50.346,10.417l-12.154,-1.737l-20.833,6.945l-48.608,5.209l-10.417,3.471l-12.154,1.737l-20.834,0l-95.487,-20.833l-22.567,-1.738l-79.862,8.684l-38.196,12.15l-19.096,1.737l-12.154,3.471l-13.888,-0l-15.625,-3.471l-24.304,-12.154l-15.625,-36.458Z" style="fill:#dbe017;fill-rule:nonzero;stroke:#fff;stroke-width:8.67px;"/><text x="4963.54px" y="1072px" style="font-family:'ArialMT', 'Arial', sans-serif;font-size:208.333px;">Imba</text><g transform="matrix(174.225,0,0,174.225,4798.1,3780.75)"></g><text x="4323.57px" y="3780.75px" style="font-family:'ArialMT', 'Arial', sans-serif;font-size:174.225px;">Caar</text><g transform="matrix(3.4845,0,0,3.4845,5323.57,1776.58)"><text x="0px" y="0px" style="font-family:'Arial-ItalicMT', 'Arial', sans-serif;font-style:italic;font-size:50px;">T<tspan x="25.952px 53.76px " y="0px 0px ">en</tspan>a</text><g transform="matrix(23.9155,0,0,23.9155,175.068,0)"></g><text x="123.267px" y="0px" style="font-family:'Arial-ItalicMT', 'Arial', sans-serif;font-style:italic;font-size:23.915px;">(city)</text></g><g transform="matrix(2.52175,0,0,2.52175,4660.29,2643.92)"><text x="0px" y="0px" style="font-family:'Arial-ItalicMT', 'Arial', sans-serif;font-style:italic;font-size:50px;">Salasaca</text><g transform="matrix(23.9155,0,0,23.9155,158.125,23.9155)"></g><text x="26.578px" y="23.915px" style="font-family:'Arial-ItalicMT', 'Arial', sans-serif;font-style:italic;font-size:23.915px;">(community)</text></g><g transform="matrix(174.225,0,0,174.225,5785.91,2126.58)"></g><text x="5369.41px" y="2126.58px" style="font-family:'ArialMT', 'Arial', sans-serif;font-size:174.225px;">Napo</text><g transform="matrix(174.225,0,0,174.225,6832.26,2959.91)"></g><text x="6202.74px" y="2959.91px" style="font-family:'ArialMT', 'Arial', sans-serif;font-size:174.225px;">Pastaza</text><g transform="matrix(174.225,0,0,174.225,4069.63,5234.91)"></g><text x="3740.24px" y="5234.91px" style="font-family:'ArialMT', 'Arial', sans-serif;font-size:174.225px;">Loja</text><path id="ECX" d="M5090.29,2263.89l-27.779,24.308l-8.68,17.358l-3.475,8.683l-1.733,10.417l0,15.625l-10.417,19.096l-8.683,10.417l-12.15,5.208l-22.571,1.737l-12.154,-5.208l-6.942,-5.208l-5.208,-5.209l-13.892,-6.945l-8.679,-0l-10.416,1.737l-10.417,8.679l-0,19.096l-3.471,6.946l-6.946,5.208l-8.679,3.471l-24.308,1.738l-10.417,3.47l-22.567,17.363l-13.891,6.946l-15.625,3.471l-24.304,-0l-43.405,-10.417l-17.358,1.738l-17.362,3.47l-22.571,6.946l-26.042,22.567l-27.775,10.417l-26.042,-8.68l-12.154,1.738l-15.625,8.679l-26.041,20.833l-15.625,5.209l-20.834,1.737l-22.571,-6.946l-17.358,-8.679l-29.517,-17.362l-10.416,-13.888l-5.209,-5.208l-13.887,-1.738l-12.154,0l-27.775,3.471l-20.834,5.209l-69.445,34.725l-43.405,3.47l-6.941,-29.512l-24.309,-32.988l-8.679,-13.887l0,-22.571l3.471,-24.304l13.892,-65.975l-1.738,-15.625l0,-17.358l3.471,-15.625l12.154,-32.988l6.946,-13.887l10.417,-10.417l20.833,-17.363l26.042,-46.875l6.941,-8.679l8.684,-6.946l17.358,-10.416l5.208,-6.946l13.892,-24.304l64.233,-152.779l10.417,-41.667l13.892,20.833l3.471,3.475l5.208,3.471l8.679,3.471l15.625,-5.208l5.208,-6.942l3.475,-6.946l3.471,-13.887l3.471,-5.209l6.946,-3.475l10.417,-3.471l10.416,-5.208l0,-5.208l-1.737,-6.946l-3.471,-8.679l-5.208,-6.946l-6.946,-5.208l-15.625,-8.68l-5.209,-3.47l-1.733,-3.475l0,-5.209l5.208,-5.208l8.68,-15.625l10.416,-27.775l12.154,-12.154l15.625,-6.946l5.209,-3.471l3.471,-3.471l5.208,-20.833l5.208,-6.946l3.471,-3.471l15.625,-5.208l8.683,-8.683l5.209,-1.734l8.679,6.942l3.471,3.475l-0,12.15l1.737,6.946l36.459,45.137l13.887,26.042l10.417,17.362l3.475,8.68l5.208,22.57l3.471,10.417l13.887,10.417l59.03,43.404l15.625,20.833l8.679,20.834l1.737,15.625l3.471,8.679l6.946,8.679l5.208,3.475l10.417,-3.475l24.304,-17.358l8.683,-3.475l6.942,-1.734l13.892,-6.946l8.679,-8.679l12.154,-5.208l8.679,-1.738l6.946,6.946l5.208,6.942l5.209,1.737l10.416,-3.47l24.305,-13.892l24.304,-0l22.571,3.475l12.154,-1.738l26.041,10.417l62.5,64.238l-8.683,24.304l0,10.416l10.417,32.988l5.208,32.983l1.738,20.834l-3.471,19.1l-10.417,19.095l-10.417,13.888l-5.208,13.892l-1.737,8.679l-0,13.887l-1.738,8.684l-10.417,10.416l-5.208,3.471l-1.733,6.946l1.733,5.208l6.946,5.209l22.571,3.47l15.625,8.68Z" style="fill:#437290;fill-rule:nonzero;stroke:#fff;stroke-width:8.67px;"/><path id="ECR" d="M4295.12,3385.42l-46.875,-45.138l-69.442,-116.321l-12.154,-12.154l-27.779,-22.567l-12.15,-6.945l-20.833,-10.417l-41.667,-29.513l-19.1,-8.683l-20.833,-1.733l-15.625,1.733l-48.609,17.363l-32.987,5.208l-20.834,-5.208l-6.945,-6.946l-5.209,-20.833l-22.566,-39.93l-12.155,-31.25l-6.945,-12.154l-22.567,-31.25l-8.683,-15.625l-6.942,-19.096l-10.417,-19.095l-13.891,-13.892l-76.388,-39.929l-5.208,-5.209l-1.738,-10.416l-1.733,-12.154l-0,-12.151l6.942,-15.625l1.737,-6.945l-13.887,-41.667l-0,-10.417l3.47,-59.029l1.738,-10.417l15.625,-43.4l15.625,-26.041l17.358,-17.363l8.684,-10.416l52.083,-98.959l1.733,-8.679l3.475,-10.417l0,-24.308l3.471,-5.208l3.471,-1.734l5.208,-1.737l10.417,-1.738l6.946,-6.941l1.737,-10.417l1.734,-5.208l6.945,-3.475l6.946,-1.734l5.209,-1.737l6.941,-13.888l1.738,-10.416l3.471,-6.946l6.946,-1.738l13.887,-1.733l6.946,-5.208l8.679,-13.892l10.417,-12.15l3.475,-5.208l5.208,-5.209l8.679,-3.475l17.363,-3.47l5.208,-6.946l5.208,-10.417l6.942,-32.983l1.738,-6.946l5.208,-10.417l5.208,-6.946l8.679,-6.941l6.946,-3.475l5.209,-8.679l-0,-5.209l-3.471,-6.946l-0,-8.679l13.887,-41.666l5.209,-29.513l-5.209,-15.625l-12.154,-6.946l-15.625,0l-32.983,3.471l-31.25,8.683l19.095,-38.195l12.155,-64.238l8.679,-17.358l8.679,-10.417l8.683,-5.208l10.417,-1.738l8.679,-6.946l3.471,-5.208l10.417,-32.983l20.833,-41.667l8.683,-20.833l12.15,-43.404l27.779,1.737l20.834,1.733l50.346,-1.733l20.833,3.471l10.417,5.208l-3.471,5.209l-6.946,6.945l-3.471,8.68l1.738,13.887l5.208,15.625l1.733,13.892l-3.471,10.416l-6.945,12.15l-1.734,8.684l3.471,17.358l5.208,6.946l8.68,6.946l12.154,3.471l12.154,1.737l12.15,0l12.154,-3.475l10.417,-6.942l8.679,-10.416l13.892,-12.154l12.15,-8.68l24.308,-13.891l10.417,-6.942l69.441,-69.446l13.892,-6.946l10.417,-1.733l17.358,6.942l-10.417,41.666l-64.233,152.78l-13.892,24.304l-5.208,6.946l-17.358,10.416l-8.684,6.946l-6.941,8.679l-26.042,46.875l-20.833,17.363l-10.417,10.416l-6.946,13.888l-12.154,32.987l-3.471,15.625l0,17.359l1.738,15.625l-13.892,65.975l-3.471,24.304l0,22.571l8.679,13.887l24.309,32.988l6.941,29.512l-45.137,20.834l-17.363,24.304l-22.566,34.725l-13.892,17.358l-1.733,12.154l1.733,5.209l6.946,1.737l8.679,-3.475l6.946,-6.942l12.154,-17.362l5.208,-5.208l5.209,-0l6.941,3.47l8.684,17.363l27.775,19.096l-0,5.208l-1.734,5.208l-5.208,5.209l-5.208,1.737l-8.684,0l-5.208,6.946l-1.733,8.679l-1.738,72.917l5.208,20.833l6.946,15.625l13.888,13.888l29.512,19.1l8.684,6.941l5.208,12.155l-1.738,12.154l-5.208,13.887l-3.471,8.679l-5.208,8.684l-5.208,3.471l-3.475,-0l-5.209,-3.471l-5.208,-1.738l-5.208,0l-26.042,29.513l-6.942,6.946l-8.683,5.208l-5.208,3.471l-1.734,5.208l3.471,5.208l5.208,1.738l6.946,1.737l5.209,1.734l3.47,5.208l5.209,1.738l5.208,-0l6.946,3.47l6.942,8.684l10.416,20.833l27.779,41.667l1.738,8.679l-3.475,17.362l-0,10.417l3.475,12.15l6.942,12.154l6.945,10.417l5.209,10.417l-3.471,13.887l-8.683,17.363l-15.625,62.5l-3.471,5.208l-12.154,8.679l-3.471,6.946l-0,8.679l31.25,39.933l31.25,52.084l6.946,12.15l-0,8.683l-6.946,15.625l-6.946,31.25l-15.625,29.513Z" style="fill:#437290;fill-rule:nonzero;stroke:#fff;stroke-width:8.67px;"/><path id="ECP" d="M4175.33,1314.24l19.1,-45.142l12.15,-22.567l10.417,-27.779l12.154,-17.362l3.471,-5.209l-1.733,-5.208l-1.738,-6.942l-6.946,-6.946l-8.679,-6.945l-24.304,-17.359l-3.475,-5.208l0,-6.946l5.208,-6.946l8.684,-5.208l19.096,-8.679l13.887,-8.679l19.1,-15.625l8.679,-5.209l12.154,-5.208l8.679,-5.208l27.78,-17.363l10.416,-3.471l13.888,0l22.571,1.734l24.304,-0l98.958,20.833l8.679,3.475l5.209,3.471l13.891,19.096l15.625,36.458l24.305,12.154l15.625,3.471l13.887,-0l12.154,-3.471l19.096,-1.737l38.196,-12.15l79.862,-8.684l22.567,1.738l95.488,20.833l20.833,0l12.154,-1.737l10.417,-3.471l48.608,-5.209l20.833,-6.945l12.154,1.737l50.346,-10.417l48.613,-1.737l26.041,1.737l15.625,6.946l6.946,6.942l3.471,20.833l0,8.684l-6.946,17.358l0,6.946l1.738,3.471l5.208,-1.734l17.363,-15.625l10.416,-3.475l8.679,0l31.25,26.042l13.888,10.417l17.362,8.683l26.042,6.942l22.571,-0l26.042,-6.942l41.666,-19.1l15.625,-10.417l22.567,-17.358l12.154,-6.946l15.625,1.738l107.638,32.983l-22.567,39.933l-1.738,0l0,1.734l3.471,3.475l3.475,1.733l20.834,6.946l8.679,-0l26.041,12.154l12.155,5.208l5.208,0l20.833,10.417l5.209,5.208l3.47,5.209l1.738,8.679l1.733,10.416l1.738,1.738l-0,1.733l5.208,3.475l10.417,3.471l-12.154,20.833l-10.417,8.68l-67.708,34.725l-32.984,10.416l-6.946,6.942l-3.47,8.683l-1.738,24.304l-3.471,10.417l-3.475,5.208l-6.941,1.738l-3.475,5.208l-10.417,17.359l-5.208,3.475l-10.417,-0l-19.096,-3.475l-8.679,-1.734l-3.475,1.734l-3.471,8.683l-1.737,8.679l-10.417,19.096l-8.679,8.683l-12.154,3.471l-6.942,1.738l-5.208,-3.475l-10.417,-8.68l-6.946,-3.47l-6.946,-0l-22.566,6.941l-8.684,1.738l-8.679,3.471l-6.946,5.208l-1.733,6.946l1.733,10.416l-3.471,85.071l-6.945,22.567l-10.417,22.571l-26.042,34.721l-10.416,17.362l-5.209,13.888l13.892,26.041l-1.738,10.417l-5.208,12.154l-10.417,19.096l-5.208,10.417l-1.737,10.416l-0,20.834l-10.417,19.1l-10.417,15.625l-17.358,17.358l-8.683,12.154l-5.209,12.154l-3.47,26.042l-3.471,12.15l-5.209,6.946l-6.945,5.208l-24.305,5.208l-12.154,3.471l-19.096,8.684l-62.5,-64.238l-26.041,-10.417l-12.154,1.738l-22.571,-3.475l-24.304,-0l-24.305,13.892l-10.416,3.47l-5.209,-1.737l-5.208,-6.942l-6.946,-6.946l-8.679,1.738l-12.154,5.208l-8.679,8.679l-13.892,6.946l-6.942,1.734l-8.683,3.475l-24.304,17.358l-10.417,3.475l-5.208,-3.475l-6.946,-8.679l-3.471,-8.679l-1.737,-15.625l-8.68,-20.834l-15.624,-20.833l-59.03,-43.404l-13.887,-10.417l-3.471,-10.417l-5.208,-22.57l-3.475,-8.68l-10.417,-17.362l-13.888,-26.042l-36.458,-45.137l-1.737,-6.946l-0,-12.15l-3.471,-3.475l-8.679,-6.942l29.512,-45.141l119.792,-12.15l17.362,-65.975l-48.612,-53.817l-88.542,-46.875l-29.512,-29.517l-166.667,5.209l-6.946,-78.125l-190.971,-5.209l-50.35,-38.191Z" style="fill:#c6d319;fill-rule:nonzero;stroke:#fff;stroke-width:8.67px;"/><path id="ECSD" d="M3956.6,1371.53l19.1,-1.737l20.833,5.208l57.292,6.946l27.775,6.942l8.683,5.208l8.679,3.475l8.68,8.679l1.737,0l6.946,-6.946l5.208,-3.471l0,-5.208l-1.737,-3.471l-3.471,-1.737l-8.684,-0l-3.47,-1.738l-10.417,-13.887l-1.737,-5.209l1.737,-5.208l17.363,-5.208l8.679,-5.209l24.304,-5.208l12.154,-6.946l13.887,-12.15l5.209,-10.416l50.35,38.191l190.971,5.209l6.946,78.125l166.666,-5.209l29.513,29.517l88.541,46.875l48.613,53.817l-17.363,65.975l-119.791,12.15l-29.513,45.141l-5.208,1.734l-8.684,8.683l-15.624,5.208l-3.471,3.471l-5.209,6.946l-5.208,20.833l-3.471,3.471l-5.208,3.471l-15.625,6.946l-12.154,12.154l-10.417,27.775l-8.679,15.625l-5.209,5.208l0,5.209l1.734,3.475l5.208,3.47l15.625,8.68l6.946,5.208l5.208,6.946l3.471,8.679l1.738,6.946l-0,5.208l-10.417,5.208l-10.417,3.471l-6.946,3.475l-3.47,5.209l-3.471,13.887l-3.475,6.946l-5.209,6.942l-15.625,5.208l-8.679,-3.471l-5.208,-3.471l-3.471,-3.475l-13.892,-20.833l-17.358,-6.942l-10.417,1.734l-13.891,6.945l-69.442,69.446l-10.417,6.942l-24.308,13.892l-12.15,8.679l-13.892,12.154l-8.679,10.417l-10.416,6.941l-12.155,3.475l-12.15,0l-12.154,-1.737l-12.154,-3.471l-8.679,-6.946l-5.208,-6.946l-3.471,-17.358l1.733,-8.683l6.946,-12.15l3.471,-10.417l-1.734,-13.892l-5.208,-15.625l-1.737,-13.887l3.47,-8.679l6.946,-6.946l3.471,-5.209l-10.417,-5.208l-20.833,-3.471l-50.346,1.734l-20.833,-1.734l-27.779,-1.737l15.625,-20.834l10.416,-26.041l1.738,-8.679l1.737,-20.834l29.513,-46.875l6.946,-13.891l3.471,-13.888l-6.946,-168.404l1.737,-15.625l-3.471,-6.942l-8.683,-3.475l-27.775,0l-32.987,-10.416l-6.946,-3.471l-24.304,-22.571l-24.305,-29.513l-6.945,-6.945l-12.155,-6.942l-6.941,-6.946l-6.946,-3.471l-5.208,-1.737l-8.68,-6.946l-5.208,-8.679l-3.475,-19.096l1.738,-10.417l1.737,-6.946l6.942,-8.679Z" style="fill:#437290;fill-rule:nonzero;stroke:#fff;stroke-width:8.67px;"/><path d="M3401.89,178.379l-1465.93,3688.38" style="fill:none;stroke:#437290;stroke-width:17.38px;stroke-miterlimit:1.5;"/><g><g transform="matrix(0.919802,-0.392382,0.392382,0.919802,-1382.54,2682.91)"><text x="5872.06px" y="4723.61px" style="font-family:'ArialMT', 'Arial', sans-serif;font-size:520.833px;">Ecuador</text></g></g><path id="ECW" d="M2062.5,2618.05l24.304,8.683l19.1,20.834l1.734,19.096l-29.513,10.416l-29.512,-3.471l-76.392,-34.724l19.1,-20.834l13.887,3.475l45.138,0l12.154,-3.475Zm-677.083,-79.858l1.737,3.471l5.209,1.737l3.47,5.208l3.471,6.942l-1.733,5.209l-5.208,10.416l-3.475,3.475l-12.15,3.471l-3.475,1.737l-1.734,3.471l1.734,12.154l-0,3.471l-5.209,6.946l-31.25,19.096l-5.208,-0l-34.721,-3.471l-13.887,-10.417l-12.155,-12.154l-20.833,-12.154l8.679,-10.417l8.684,-12.15l5.208,-12.154l6.942,-29.512l8.683,-13.892l10.417,-5.208l10.416,12.154l17.359,-5.208l26.041,5.208l22.571,12.154l10.417,10.417Zm1008.68,-534.725l12.154,6.946l12.154,-0l12.15,-5.209l10.417,-5.208l3.475,34.721l-17.363,38.196l-27.779,34.72l-27.775,20.834l-32.987,10.416l-5.209,5.209l-1.737,10.416l-12.15,26.042l-19.1,29.517l-12.15,13.887l-13.892,8.679l-13.887,5.209l-13.888,1.737l-32.987,-1.737l-10.417,3.475l-19.096,13.887l-12.154,3.471l-10.417,-3.471l-19.095,-12.154l-8.684,-5.208l-34.721,-5.209l-6.945,-3.47l-1.734,-8.68l5.209,-10.416l12.15,-13.892l6.945,-6.942l38.196,-17.362l12.15,-10.417l10.417,-32.987l8.683,-0l39.929,-10.417l10.417,-10.417l13.888,-29.512l8.683,-10.417l26.042,-24.304l5.208,-8.683l6.942,-5.209l32.987,-12.15l10.417,-10.416l15.625,-0l27.779,-8.684l12.15,5.209Zm-831.596,-138.888l10.417,10.417l-1.738,20.833l-12.15,39.929l0,12.155l5.209,12.154l1.733,10.416l-1.733,3.471l-8.684,20.834l0,5.208l-15.625,5.208l-10.416,15.625l-10.417,17.363l-12.15,13.887l-6.946,5.209l-5.208,1.737l-46.875,-1.737l-3.471,3.47l-5.208,19.1l-12.155,8.68l-17.362,3.47l-17.358,-1.733l-32.988,-10.416l-19.096,-3.475l-6.946,-5.209l-3.47,-5.208l-5.209,-1.733l-6.946,-6.946l-20.833,-27.779l-8.679,-10.417l-12.154,1.737l-19.096,-3.47l-15.625,-8.684l-10.417,-8.679l-1.737,-12.154l1.737,-45.138l5.209,-26.041l10.416,-22.571l13.888,-19.096l15.625,-15.625l8.679,-6.946l26.042,-10.416l10.416,-3.471l31.25,5.208l6.946,1.737l8.679,-1.737l10.417,-8.679l6.946,-1.738l88.541,-10.416l20.834,-10.417l5.208,1.737l10.417,6.942l5.208,5.208l1.738,8.684l-1.738,10.416l1.738,10.417l6.941,3.471l8.684,0l19.095,5.208l10.417,0Zm-1137.15,-79.862l-8.679,5.208l-65.971,26.042l-15.625,3.475l-8.683,-0l-10.417,-3.475l-19.096,-12.15l-17.362,-5.209l-27.775,-10.416l-5.209,-1.738l-10.416,1.738l-3.475,-0l-5.209,-3.475l0,-3.471l1.738,-3.471l-3.471,-3.475l-15.625,-17.358l-12.154,-19.1l-8.679,-20.834l-5.209,-43.4l-12.154,-34.725l1.738,-12.15l83.333,1.734l34.721,-17.359l43.404,-10.416l22.567,-6.946l5.208,-0l12.154,6.946l31.25,32.983l10.417,5.208l10.416,8.684l3.471,20.833l-5.208,34.721l-0,81.596Zm786.458,-157.984l12.154,6.942l-5.208,17.363l-20.833,29.512l-6.946,20.833l-17.358,5.209l-20.834,-3.471l-39.933,-12.154l-65.971,-0l-17.362,-5.209l-17.359,-10.416l-17.362,-5.209l-20.834,8.684l-13.887,-17.363l-5.208,-24.304l-10.417,-19.1l-22.571,-5.208l39.929,-53.817l1.738,-12.154l-5.209,-17.363l6.946,-17.358l15.625,-10.417l17.359,-3.475l6.945,3.475l3.471,0l3.475,-3.475l19.096,12.155l64.238,22.57l22.566,3.471l31.25,12.154l48.613,53.817l26.041,17.363l-3.47,1.737l-3.475,0l-5.209,5.208Zm-230.9,418.4l8.679,5.209l5.209,-0l3.471,3.475l-0,13.887l-3.471,5.209l-22.571,10.416l-8.679,3.471l-29.513,92.017l3.471,24.304l-1.737,15.625l-20.834,-5.208l-10.416,15.625l-24.305,26.041l-10.416,15.625l-15.625,-6.946l-15.625,-1.733l-29.513,1.733l-19.1,5.209l-29.512,22.571l-107.638,36.458l-20.833,-5.208l-13.892,3.47l-85.066,-12.15l-105.905,1.734l-19.095,-5.209l-15.625,-13.887l-3.475,-10.417l-1.734,-10.416l0,-20.834l-3.475,-10.416l-8.679,-3.471l-10.417,-0l-10.416,-3.475l-24.304,-36.459l8.679,-43.4l26.041,-39.933l27.78,-27.775l111.108,-71.183l3.475,-6.942l-0,-6.946l3.471,-3.471l15.625,-1.737l22.571,-10.417l32.983,-8.679l12.154,0l10.417,3.471l5.208,3.471l3.471,3.475l5.208,3.471l17.363,5.208l8.679,0l10.417,-3.471l5.208,-5.208l8.683,-13.892l5.209,-3.471l-0,-8.679l8.679,-20.833l13.887,-13.892l13.892,5.209l10.417,-15.625l-0,-13.888l-6.946,-12.154l-10.417,-10.417l-13.887,-5.208l-27.78,-8.679l-10.416,-5.209l-22.571,-20.833l-22.567,-29.513l-17.362,-32.987l-8.679,-31.25l1.733,-27.779l-3.471,-10.417l-10.417,-8.679l-8.679,-1.737l-12.154,-1.734l-5.208,-1.737l-3.471,-5.209l-8.683,-13.887l-57.292,-31.25l-22.567,-24.308l1.734,-29.513l-19.096,-10.417l-12.154,-20.833l1.737,-19.096l22.571,-6.946l-17.363,-24.304l-5.208,-13.891l-3.471,-17.359l0,-39.933l-5.208,-15.625l-0,-8.679l-8.683,-31.25l-20.834,-15.625l-29.512,-0l-31.25,12.154l-32.988,22.566l-17.358,3.475l-17.363,-10.416l-19.095,-26.042l-3.475,-5.208l1.737,-8.684l5.208,-5.208l6.946,-1.733l64.234,-36.459l17.362,-17.362l6.946,-38.196l22.567,6.946l19.1,-5.208l19.095,-8.679l29.513,-8.684l6.946,-6.941l5.208,-8.684l6.946,-6.941l12.15,-3.475l17.362,-0l8.68,-3.471l15.625,13.887l6.945,22.571l3.471,19.096l3.475,8.683l12.15,8.679l12.154,41.667l8.68,8.679l5.208,3.475l13.892,17.359l5.208,5.208l20.833,-0l8.679,1.737l6.946,3.471l6.942,17.363l1.737,22.571l-3.47,43.4l17.358,105.904l10.417,15.625l39.933,36.458l3.471,3.471l1.737,5.208l-1.737,12.154l3.471,10.417l6.945,3.471l6.946,1.737l3.471,3.471l95.488,60.767l6.941,10.416l1.738,8.68l5.208,6.945l12.154,13.888l5.209,1.737l13.887,3.471l0,5.209l-1.737,6.945l-3.471,6.942l8.679,36.458l3.475,38.196l-5.208,17.363l-26.042,22.566l-6.946,13.892l20.833,-13.892l5.209,8.684l1.737,17.358l3.471,13.892l39.929,8.679l19.1,10.417l0,20.833l12.15,1.737l10.417,5.209l8.683,6.941l6.942,12.155l-6.942,12.154l13.888,5.208l32.987,32.983Zm279.513,-953.125l-8.679,-3.47l-10.417,-6.946l-6.946,-8.679l-3.471,-6.946l1.734,-20.834l15.625,-15.625l20.833,-10.416l19.1,-3.471l22.567,6.946l22.57,10.416l17.363,13.888l8.679,19.096l-5.208,13.891l-17.363,15.625l-20.833,12.15l-20.833,3.475l-10.417,-3.475l-12.15,-12.15l-12.154,-3.475Zm-267.363,-347.22l38.196,20.833l12.154,41.667l-15.625,31.25l-41.666,-17.363l6.941,-19.096l-6.941,-41.666l6.941,-15.625Zm-960.066,-689.238l3.47,0l3.471,8.683l-1.733,3.471l-3.475,5.209l-5.208,-3.471l-3.471,-5.209l-0,-5.208l6.946,-3.475Zm-3.475,-8.679l5.208,-0l-3.471,3.471l-1.737,-3.471Zm-177.084,-248.263l5.209,-5.208l5.208,3.471l-0,8.679l-6.942,1.738l-3.475,-8.68Zm1930.56,1237.85l13.887,0l5.208,13.888l0,15.625l-6.945,6.946l-0,-10.417l-6.942,-3.471l-8.683,5.208l-0,6.942l-8.68,-3.471l-3.47,-13.887l3.47,-10.417l12.155,-6.946Z" style="fill:#437290;fill-rule:nonzero;stroke:#fff;stroke-width:8.67px;"/><g transform="matrix(4.16667,0,0,4.16667,4588.54,1392.83)"><text x="0px" y="0px" style="font-family:'ArialMT', 'Arial', sans-serif;font-size:50px;">Calderon</text><g transform="matrix(25,0,0,25,123.608,50)"></g><text x="69.458px" y="50px" style="font-family:'ArialMT', 'Arial', sans-serif;font-size:25px;">(city)</text></g><g transform="matrix(0.517964,-0.855402,0.855402,0.517964,-834.965,5683.43)"><g transform="matrix(162.608,0,0,162.608,5501.95,3582.56)"></g><text x="4625.32px" y="3582.56px" style="font-family:'ArialMT', 'Arial', sans-serif;font-size:162.608px;">Chimborazo</text></g><path d="M5095.83,2133.33l370.834,-333.333" style="fill:none;stroke:#001400;stroke-width:8.7px;stroke-miterlimit:1.5;"/><path d="M4962.5,2475l-95.833,86.142" style="fill:none;stroke:#001400;stroke-width:8.7px;stroke-miterlimit:1.5;"/></g></svg>